%TF.GenerationSoftware,Altium Limited,Altium Designer,23.3.1 (30)*%
G04 Layer_Color=16711935*
%FSLAX45Y45*%
%MOMM*%
%TF.SameCoordinates,796C1B80-4156-4CD7-A6E5-B9CE5994D65D*%
%TF.FilePolarity,Positive*%
%TF.FileFunction,Other,Mechanical_13*%
%TF.Part,Single*%
G01*
G75*
%TA.AperFunction,NonConductor*%
%ADD21C,0.20000*%
%ADD22C,0.10000*%
D21*
X8282798Y7132198D02*
X9598802D01*
X8282798Y6482202D02*
Y7132198D01*
Y6482202D02*
X9598802D01*
Y7132198D01*
X9755998Y6507602D02*
X10310002D01*
X9755998D02*
Y7157598D01*
X10310002D01*
Y6507602D02*
Y7157598D01*
D22*
X7874000Y8556798D02*
Y9030000D01*
Y7620000D02*
Y8093202D01*
X7756002Y8211200D02*
X7874000Y8093202D01*
X7756002D02*
X7991998D01*
Y8556701D01*
X7756002D02*
X7991998D01*
X7756002Y8093202D02*
Y8556701D01*
X10277998Y8093299D02*
Y8556798D01*
X10042002Y8093299D02*
X10277998D01*
X10042002D02*
Y8556798D01*
X10277998D01*
X10160000D02*
X10277998Y8438799D01*
X10160000Y8556798D02*
Y9030000D01*
Y7620000D02*
Y8093202D01*
X8855299Y9534002D02*
X9318798D01*
X8855299D02*
Y9769998D01*
X9318798D01*
Y9534002D02*
Y9769998D01*
X9200799Y9534002D02*
X9318798Y9652000D01*
X9792000D01*
X8382000D02*
X8855202D01*
Y10277998D02*
X9318701D01*
Y10042002D02*
Y10277998D01*
X8855202Y10042002D02*
X9318701D01*
X8855202D02*
Y10277998D01*
Y10160000D02*
X8973200Y10277998D01*
X8382000Y10160000D02*
X8855202D01*
X9318798D02*
X9792000D01*
%TF.MD5,d1d418850f840aa42591a0cf8951c517*%
M02*
