%TF.GenerationSoftware,Altium Limited,Altium Designer,23.3.1 (30)*%
G04 Layer_Color=16711935*
%FSLAX45Y45*%
%MOMM*%
%TF.SameCoordinates,796C1B80-4156-4CD7-A6E5-B9CE5994D65D*%
%TF.FilePolarity,Negative*%
%TF.FileFunction,Soldermask,Bot*%
%TF.Part,Single*%
G01*
G75*
%TA.AperFunction,ComponentPad*%
%ADD24C,1.77820*%
%ADD25R,1.77820X1.77820*%
%TA.AperFunction,ViaPad*%
%ADD26C,1.72720*%
%TA.AperFunction,ComponentPad*%
%ADD27C,1.89814*%
%ADD28R,1.89814X1.89814*%
%ADD29R,1.85320X1.85320*%
%ADD30C,1.85320*%
%ADD31R,2.00320X2.00320*%
%ADD32C,2.00320*%
%ADD33R,1.77820X1.77820*%
D24*
X7874000Y9030000D02*
D03*
X10160000Y7620000D02*
D03*
X8382000Y9652000D02*
D03*
X9792000Y10160000D02*
D03*
D25*
X7874000Y7620000D02*
D03*
X10160000Y9030000D02*
D03*
D26*
X7874000Y10414000D02*
D03*
X10160000D02*
D03*
Y5842000D02*
D03*
X7874000D02*
D03*
D27*
X8844991Y9017000D02*
D03*
Y8763000D02*
D03*
Y8509000D02*
D03*
Y8255000D02*
D03*
Y8001000D02*
D03*
Y7747000D02*
D03*
Y7493000D02*
D03*
X9398000Y9144000D02*
D03*
Y8890000D02*
D03*
Y8636000D02*
D03*
Y8382000D02*
D03*
Y8128000D02*
D03*
Y7874000D02*
D03*
Y7620000D02*
D03*
D28*
Y7366000D02*
D03*
D29*
X9448800Y6807200D02*
D03*
D30*
X9194800D02*
D03*
X8940800D02*
D03*
X8686800D02*
D03*
X8432800D02*
D03*
D31*
X10160000Y6832600D02*
D03*
D32*
X9906000D02*
D03*
D33*
X9792000Y9652000D02*
D03*
X8382000Y10160000D02*
D03*
%TF.MD5,29d64ecce98088ee26648ca1e4db4153*%
M02*
