%TF.GenerationSoftware,Altium Limited,Altium Designer,23.3.1 (30)*%
G04 Layer_Color=255*
%FSLAX45Y45*%
%MOMM*%
%TF.SameCoordinates,796C1B80-4156-4CD7-A6E5-B9CE5994D65D*%
%TF.FilePolarity,Positive*%
%TF.FileFunction,Pads,Top*%
%TF.Part,Single*%
G01*
G75*
%TA.AperFunction,ComponentPad*%
%ADD11C,1.57500*%
%ADD12R,1.57500X1.57500*%
%TA.AperFunction,ViaPad*%
%ADD13C,1.52400*%
%TA.AperFunction,ComponentPad*%
%ADD14C,1.69494*%
%ADD15R,1.69494X1.69494*%
%ADD16R,1.65000X1.65000*%
%ADD17C,1.65000*%
%ADD18R,1.80000X1.80000*%
%ADD19C,1.80000*%
%ADD20R,1.57500X1.57500*%
D11*
X7874000Y9030000D02*
D03*
X10160000Y7620000D02*
D03*
X8382000Y9652000D02*
D03*
X9792000Y10160000D02*
D03*
D12*
X7874000Y7620000D02*
D03*
X10160000Y9030000D02*
D03*
D13*
X7874000Y10414000D02*
D03*
X10160000D02*
D03*
Y5842000D02*
D03*
X7874000D02*
D03*
D14*
X8844991Y9017000D02*
D03*
Y8763000D02*
D03*
Y8509000D02*
D03*
Y8255000D02*
D03*
Y8001000D02*
D03*
Y7747000D02*
D03*
Y7493000D02*
D03*
X9398000Y9144000D02*
D03*
Y8890000D02*
D03*
Y8636000D02*
D03*
Y8382000D02*
D03*
Y8128000D02*
D03*
Y7874000D02*
D03*
Y7620000D02*
D03*
D15*
Y7366000D02*
D03*
D16*
X9448800Y6807200D02*
D03*
D17*
X9194800D02*
D03*
X8940800D02*
D03*
X8686800D02*
D03*
X8432800D02*
D03*
D18*
X10160000Y6832600D02*
D03*
D19*
X9906000D02*
D03*
D20*
X9792000Y9652000D02*
D03*
X8382000Y10160000D02*
D03*
%TF.MD5,6455a62c86c56fed373b5a518ffaaf00*%
M02*
