M48
;Layer_Color=9474304
;FILE_FORMAT=4:4
METRIC,LZ
;TYPE=PLATED
T1F00S00C1.0500
T2F00S00C1.1000
T3F00S00C1.1300
T4F00S00C1.2000
T5F00S00C2.0000
%
T01
X01016Y00762
X007874
Y00903
X008382Y009652
Y01016
X009792
Y009652
X01016Y00903
T02
X0084328Y0068072
X0086868
X0089408
X0091948
X0094488
T03
X00884499Y007493
Y007747
X009398Y007874
Y00762
Y007366
Y008128
Y008382
Y008636
Y00889
Y009144
X00884499Y009017
Y008763
Y008509
Y008255
Y008001
T04
X009906Y0068326
X01016
T05
X01016Y005842
X007874
Y010414
X01016
M30
