%TF.GenerationSoftware,Altium Limited,Altium Designer,23.3.1 (30)*%
G04 Layer_Color=65535*
%FSLAX45Y45*%
%MOMM*%
%TF.SameCoordinates,796C1B80-4156-4CD7-A6E5-B9CE5994D65D*%
%TF.FilePolarity,Positive*%
%TF.FileFunction,Legend,Top*%
%TF.Part,Single*%
G01*
G75*
%TA.AperFunction,NonConductor*%
%ADD21C,0.20000*%
%ADD22C,0.10000*%
%ADD23C,0.25400*%
D21*
X7874000Y8556798D02*
Y8916203D01*
Y7733802D02*
Y8093202D01*
X7756002Y8211200D02*
X7874000Y8093202D01*
X7756002D02*
X7991998D01*
Y8556798D01*
X7756002D02*
X7991998D01*
X7756002Y8093202D02*
Y8556798D01*
X10277998Y8093202D02*
Y8556798D01*
X10042002Y8093202D02*
X10277998D01*
X10042002D02*
Y8556798D01*
X10277998D01*
X10160000D02*
X10277998Y8438799D01*
X10160000Y8556798D02*
Y8916198D01*
Y7733802D02*
Y8093202D01*
X8855202Y9534002D02*
X9318798D01*
X8855202D02*
Y9769998D01*
X9318798D01*
Y9534002D02*
Y9769998D01*
X9200799Y9534002D02*
X9318798Y9652000D01*
X9678198D01*
X8495802D02*
X8855202D01*
Y10277998D02*
X9318798D01*
Y10042002D02*
Y10277998D01*
X8855202Y10042002D02*
X9318798D01*
X8855202D02*
Y10277998D01*
Y10160000D02*
X8973200Y10277998D01*
X8495802Y10160000D02*
X8855202D01*
X9318798D02*
X9678203D01*
D22*
X8282798Y7132198D02*
X9598802D01*
X8282798Y6482202D02*
Y7132198D01*
Y6482202D02*
X9598802D01*
Y7132198D01*
X9755998Y6507602D02*
X10310002D01*
X9755998D02*
Y7157598D01*
X10310002D01*
Y6507602D02*
Y7157598D01*
D23*
X9550359Y6223033D02*
X9575751Y6248425D01*
Y6299208D01*
X9550359Y6324600D01*
X9448792D01*
X9423400Y6299208D01*
Y6248425D01*
X9448792Y6223033D01*
X9499575D01*
Y6273817D01*
X9423400Y6172249D02*
X9575751D01*
X9423400Y6070682D01*
X9575751D01*
Y6019899D02*
X9423400D01*
Y5943723D01*
X9448792Y5918331D01*
X9550359D01*
X9575751Y5943723D01*
Y6019899D01*
X8559751Y10439400D02*
Y10591751D01*
X8610534Y10540967D01*
X8661318Y10591751D01*
Y10439400D01*
X8788277D02*
X8737493D01*
X8712101Y10464792D01*
Y10515575D01*
X8737493Y10540967D01*
X8788277D01*
X8813669Y10515575D01*
Y10490183D01*
X8712101D01*
X8864452Y10439400D02*
X8915236D01*
X8889844D01*
Y10591751D01*
X8864452D01*
X9016803Y10439400D02*
X9067586D01*
X9092978Y10464792D01*
Y10515575D01*
X9067586Y10540967D01*
X9016803D01*
X8991411Y10515575D01*
Y10464792D01*
X9016803Y10439400D01*
X9143762D02*
Y10540967D01*
X9219937D01*
X9245329Y10515575D01*
Y10439400D01*
X9346896D02*
X9296112Y10490183D01*
Y10540967D01*
X9346896Y10591751D01*
X9423071Y10439400D02*
X9473855D01*
X9448463D01*
Y10591751D01*
X9423071Y10566359D01*
X9550030Y10439400D02*
X9600814D01*
X9575422D01*
Y10591751D01*
X9550030Y10566359D01*
X9676989Y10439400D02*
X9727773Y10490183D01*
Y10540967D01*
X9676989Y10591751D01*
X8559751Y6324600D02*
Y6273817D01*
Y6299208D01*
X8407400D01*
Y6324600D01*
Y6273817D01*
Y6197641D02*
X8508967D01*
Y6121466D01*
X8483575Y6096074D01*
X8407400D01*
Y6045290D02*
Y5994507D01*
Y6019899D01*
X8559751D01*
X8534359Y6045290D01*
X8813751Y6324600D02*
Y6273817D01*
Y6299208D01*
X8661400D01*
Y6324600D01*
Y6273817D01*
Y6197641D02*
X8762967D01*
Y6121466D01*
X8737575Y6096074D01*
X8661400D01*
Y5943723D02*
Y6045290D01*
X8762967Y5943723D01*
X8788359D01*
X8813751Y5969115D01*
Y6019899D01*
X8788359Y6045290D01*
X9067751Y6223033D02*
Y6324600D01*
X8991575D01*
X9016967Y6273817D01*
Y6248425D01*
X8991575Y6223033D01*
X8940792D01*
X8915400Y6248425D01*
Y6299208D01*
X8940792Y6324600D01*
X9067751Y6172249D02*
X8966183D01*
X8915400Y6121466D01*
X8966183Y6070682D01*
X9067751D01*
X8991575Y6019899D02*
Y5918331D01*
X9042359Y5969115D02*
X8940792D01*
X9169400Y6324600D02*
Y6273817D01*
Y6299208D01*
X9321751D01*
X9296359Y6324600D01*
X9169400Y6096074D02*
Y6197641D01*
X9270967Y6096074D01*
X9296359D01*
X9321751Y6121466D01*
Y6172249D01*
X9296359Y6197641D01*
X9321751Y6045290D02*
X9220183D01*
X9169400Y5994507D01*
X9220183Y5943723D01*
X9321751D01*
X9245575Y5892940D02*
Y5791372D01*
X9296359Y5842156D02*
X9194792D01*
X8534515Y9474175D02*
Y9321825D01*
X8636082D01*
X8788433D02*
X8686866D01*
X8788433Y9423392D01*
Y9448783D01*
X8763041Y9474175D01*
X8712258D01*
X8686866Y9448783D01*
X8839217Y9347217D02*
X8864608Y9321825D01*
X8915392D01*
X8940784Y9347217D01*
Y9448783D01*
X8915392Y9474175D01*
X8864608D01*
X8839217Y9448783D01*
Y9423392D01*
X8864608Y9398000D01*
X8940784D01*
X8991567Y9448783D02*
X9016959Y9474175D01*
X9067743D01*
X9093134Y9448783D01*
Y9423392D01*
X9067743Y9398000D01*
X9093134Y9372608D01*
Y9347217D01*
X9067743Y9321825D01*
X9016959D01*
X8991567Y9347217D01*
Y9372608D01*
X9016959Y9398000D01*
X8991567Y9423392D01*
Y9448783D01*
X9016959Y9398000D02*
X9067743D01*
X9143918Y9321825D02*
Y9474175D01*
X9245485Y9321825D01*
Y9474175D01*
X9855266Y6324600D02*
X9956833D01*
X10007617Y6248425D02*
Y6400775D01*
X10058400Y6349992D01*
X10109184Y6400775D01*
Y6248425D01*
X10159967Y6324600D02*
X10261534D01*
X10210751Y6375383D02*
Y6273817D01*
%TF.MD5,def0d2cc83c43fb4ac9f96fb2f0c7c5c*%
M02*
