G04*
G04 #@! TF.GenerationSoftware,Altium Limited,Altium Designer,23.3.1 (30)*
G04*
G04 Layer_Physical_Order=2*
G04 Layer_Color=16711680*
%FSLAX44Y44*%
%MOMM*%
G71*
G04*
G04 #@! TF.SameCoordinates,D36B0BC1-D60A-48D3-9530-44C1F81AE03C*
G04*
G04*
G04 #@! TF.FilePolarity,Positive*
G04*
G01*
G75*
%ADD15C,0.2540*%
G04:AMPARAMS|DCode=23|XSize=3.2mm|YSize=1.6mm|CornerRadius=0.8mm|HoleSize=0mm|Usage=FLASHONLY|Rotation=0.000|XOffset=0mm|YOffset=0mm|HoleType=Round|Shape=RoundedRectangle|*
%AMROUNDEDRECTD23*
21,1,3.2000,0.0000,0,0,0.0*
21,1,1.6000,1.6000,0,0,0.0*
1,1,1.6000,0.8000,0.0000*
1,1,1.6000,-0.8000,0.0000*
1,1,1.6000,-0.8000,0.0000*
1,1,1.6000,0.8000,0.0000*
%
%ADD23ROUNDEDRECTD23*%
%ADD24R,3.2000X1.6000*%
G04:AMPARAMS|DCode=25|XSize=1.6mm|YSize=3.2mm|CornerRadius=0.8mm|HoleSize=0mm|Usage=FLASHONLY|Rotation=0.000|XOffset=0mm|YOffset=0mm|HoleType=Round|Shape=RoundedRectangle|*
%AMROUNDEDRECTD25*
21,1,1.6000,1.6000,0,0,0.0*
21,1,0.0000,3.2000,0,0,0.0*
1,1,1.6000,0.0000,-0.8000*
1,1,1.6000,0.0000,-0.8000*
1,1,1.6000,0.0000,0.8000*
1,1,1.6000,0.0000,0.8000*
%
%ADD25ROUNDEDRECTD25*%
%ADD30C,1.2500*%
%ADD31R,1.2500X1.2500*%
%ADD32R,1.2500X1.2500*%
%ADD43C,1.6500*%
%ADD44C,1.5240*%
%ADD45R,1.5240X1.5240*%
%ADD46R,1.1580X1.1580*%
%ADD47C,1.1580*%
%ADD48R,1.3000X1.3000*%
%ADD49C,1.3000*%
%ADD50R,2.0550X2.0550*%
%ADD51C,2.0550*%
%ADD52C,1.8000*%
%ADD53R,1.8000X1.8000*%
%ADD54R,1.9350X1.9350*%
%ADD55C,1.9350*%
%ADD56C,1.5750*%
%ADD57R,2.0550X2.0550*%
%ADD58O,3.0160X1.5080*%
%ADD59O,1.5080X3.0160*%
%ADD60C,1.6000*%
%ADD61C,1.2000*%
%ADD62R,1.2000X1.2000*%
%ADD63C,1.2700*%
D15*
X978408Y509270D02*
X1014730D01*
X1076706Y447294D02*
X1183894D01*
X1014730Y509270D02*
X1076706Y447294D01*
X1117600Y939800D02*
X1155700Y901700D01*
X990600Y939800D02*
X1117600D01*
X1155700Y876300D02*
Y901700D01*
Y876300D02*
X1193800Y838200D01*
X714248Y528320D02*
Y917448D01*
X748792Y951992D02*
X1002792D01*
X714248Y917448D02*
X748792Y951992D01*
X736600Y1187450D02*
X820350D01*
X791200Y406400D02*
X1003300D01*
X1016000Y393700D01*
X824992Y774192D02*
X838200Y787400D01*
X731520Y774192D02*
X824992D01*
X719328Y762000D02*
X731520Y774192D01*
X719328Y703072D02*
Y762000D01*
Y703072D02*
X736600Y685800D01*
X1183894Y441706D02*
X1193800Y431800D01*
X1021080Y441706D02*
X1183894D01*
X968248Y494538D02*
X1021080Y441706D01*
X723646Y901446D02*
X736600Y914400D01*
X723646Y812800D02*
Y901446D01*
Y812800D02*
X735584Y800862D01*
X926338D01*
X990600Y736600D01*
X1066800Y889000D02*
X1117600Y838200D01*
X990600Y889000D02*
X1066800D01*
X1097200Y1193800D02*
X1168400D01*
X1092200Y1188800D02*
X1097200Y1193800D01*
X1016000Y1188800D02*
X1092200D01*
X999000D02*
X1016000D01*
X969000Y1158800D02*
X999000Y1188800D01*
X736600Y558800D02*
X803656Y625856D01*
Y647700D01*
X828294Y672338D01*
X1078738D01*
X1117600Y711200D01*
X762000D02*
X838200D01*
X736600Y736600D02*
X762000Y711200D01*
X769620Y515620D02*
X838200Y584200D01*
X726948Y515620D02*
X769620D01*
X714248Y528320D02*
X726948Y515620D01*
X1002792Y951992D02*
X1041400Y990600D01*
X749300Y850900D02*
X1004824D01*
X736600Y863600D02*
X749300Y850900D01*
X736600Y889000D02*
X787400D01*
X838200Y939800D01*
X1117600Y787400D02*
X1168400D01*
X1193800Y812800D01*
X1178560Y904494D02*
X1228344D01*
X1173226Y899160D02*
X1178560Y904494D01*
X1173226Y869188D02*
Y899160D01*
Y869188D02*
X1193800Y848614D01*
X1198372D01*
X1203706Y843280D01*
Y833120D02*
Y843280D01*
X1194816Y824230D02*
X1203706Y833120D01*
X1161542Y824230D02*
X1194816D01*
X1139444Y802132D02*
X1161542Y824230D01*
X1001268Y802132D02*
X1139444D01*
X990600Y812800D02*
X1001268Y802132D01*
X1055370Y875030D02*
X1117600Y812800D01*
X985520Y875030D02*
X1055370D01*
X979170Y881380D02*
X985520Y875030D01*
X979170Y881380D02*
Y902970D01*
X990600Y914400D01*
X724408Y723392D02*
X736600Y711200D01*
X724408Y723392D02*
Y741680D01*
X731520Y748792D01*
X824992D01*
X838200Y762000D01*
X1117600Y533400D02*
X1155700Y571500D01*
X1201166D01*
X1218850Y589184D01*
Y878936D01*
X1198880Y898906D02*
X1218850Y878936D01*
X1188720Y898906D02*
X1198880D01*
X1178306Y888492D02*
X1188720Y898906D01*
X1178306Y879094D02*
Y888492D01*
Y879094D02*
X1193800Y863600D01*
X1183894Y447294D02*
X1193800Y457200D01*
X723646Y546354D02*
X736600Y533400D01*
X723646Y546354D02*
Y572516D01*
X790448Y639318D01*
Y685038D01*
X803910Y698500D01*
X1019302D01*
X1041908Y721106D01*
X1122680D01*
X1127506Y716280D01*
Y695706D02*
Y716280D01*
X1117600Y685800D02*
X1127506Y695706D01*
X1107694Y467106D02*
X1117600Y457200D01*
X1107694Y467106D02*
Y589280D01*
X1115314Y596900D01*
X1119886D01*
X1203610Y680624D01*
Y726790D01*
X1193800Y736600D02*
X1203610Y726790D01*
X1193800Y889000D02*
X1213770Y869030D01*
Y614584D02*
Y869030D01*
X1194054Y594868D02*
X1213770Y614584D01*
X1153668Y594868D02*
X1194054D01*
X1117600Y558800D02*
X1153668Y594868D01*
X1030698Y736600D02*
X1117600D01*
X1019268Y725170D02*
X1030698Y736600D01*
X849630Y725170D02*
X1019268D01*
X838200Y736600D02*
X849630Y725170D01*
X990600Y711200D02*
X1013460D01*
X1028954Y726694D01*
X1146302D01*
X1166114Y746506D01*
X1198880D01*
X1208690Y736696D01*
Y624490D02*
Y736696D01*
X1193800Y609600D02*
X1208690Y624490D01*
X990600Y660400D02*
X1168400D01*
X1193800Y685800D01*
X889000Y660400D02*
X990600D01*
X838200Y609600D02*
X889000Y660400D01*
X863600Y469900D02*
X901700Y431800D01*
X1092200D01*
X1117600Y406400D01*
X1030224Y1052576D02*
X1041400Y1041400D01*
X1030224Y1052576D02*
Y1056640D01*
X1020064Y1066800D02*
X1030224Y1056640D01*
X939000Y1066800D02*
X1020064D01*
X736600Y1187450D02*
Y1193800D01*
X820350Y1187450D02*
X839400Y1168400D01*
X951230Y826770D02*
X990600Y787400D01*
X748030Y826770D02*
X951230D01*
X736600Y838200D02*
X748030Y826770D01*
X762000Y1041400D02*
X925576D01*
X952754Y1014222D01*
X1066800D01*
X1079500Y1001522D01*
Y975360D02*
Y1001522D01*
Y975360D02*
X1089660Y965200D01*
X1168400D01*
X924000Y1158800D02*
X969000D01*
X914400Y1168400D02*
X924000Y1158800D01*
X839400Y1168400D02*
Y1183640D01*
X848130Y1192371D01*
X909320D01*
X914400Y1187290D01*
Y1168400D02*
Y1187290D01*
X776249Y1128800D02*
X1016000D01*
X736600Y1168450D02*
X776249Y1128800D01*
X762000Y1092200D02*
X1168400D01*
X711200Y1041400D02*
X762000Y990600D01*
X1092200D02*
X1168400D01*
D23*
X1016000Y1188800D02*
D03*
D24*
Y1128800D02*
D03*
D25*
X969000Y1158800D02*
D03*
D30*
X839000Y1066800D02*
D03*
X1092200Y1243800D02*
D03*
D31*
X939000Y1066800D02*
D03*
D32*
X1092200Y1143800D02*
D03*
D43*
X838200Y558800D02*
D03*
X990600D02*
D03*
Y965200D02*
D03*
X838200D02*
D03*
X736600Y609600D02*
D03*
Y635000D02*
D03*
Y660400D02*
D03*
Y685800D02*
D03*
Y711200D02*
D03*
Y736600D02*
D03*
Y762000D02*
D03*
Y787400D02*
D03*
X1168400Y1066800D02*
D03*
Y1092200D02*
D03*
Y1117600D02*
D03*
Y1143000D02*
D03*
Y1168400D02*
D03*
Y1193800D02*
D03*
Y1219200D02*
D03*
Y1244600D02*
D03*
D44*
X990600Y939800D02*
D03*
Y914400D02*
D03*
Y889000D02*
D03*
Y863600D02*
D03*
Y838200D02*
D03*
Y812800D02*
D03*
Y787400D02*
D03*
Y762000D02*
D03*
Y736600D02*
D03*
Y711200D02*
D03*
Y685800D02*
D03*
Y660400D02*
D03*
Y635000D02*
D03*
Y609600D02*
D03*
Y584200D02*
D03*
X838200D02*
D03*
Y609600D02*
D03*
Y635000D02*
D03*
Y660400D02*
D03*
Y685800D02*
D03*
Y711200D02*
D03*
Y736600D02*
D03*
Y762000D02*
D03*
Y787400D02*
D03*
Y812800D02*
D03*
Y838200D02*
D03*
Y863600D02*
D03*
Y889000D02*
D03*
Y914400D02*
D03*
X660400Y1270000D02*
D03*
X1244600D02*
D03*
Y355600D02*
D03*
X660400D02*
D03*
D45*
X838200Y939800D02*
D03*
D46*
X1016000Y469900D02*
D03*
D47*
X863600D02*
D03*
Y393700D02*
D03*
X1016000D02*
D03*
D48*
X1092200Y990600D02*
D03*
X762000Y1041400D02*
D03*
X711200Y990600D02*
D03*
D49*
X1041400D02*
D03*
X711200Y1041400D02*
D03*
X762000Y990600D02*
D03*
D50*
X1016050Y1041400D02*
D03*
D51*
X1041400D02*
D03*
X1066750D02*
D03*
X736600Y1193800D02*
D03*
Y1219150D02*
D03*
D52*
X1168400Y990600D02*
D03*
X736600Y558800D02*
D03*
Y914400D02*
D03*
Y889000D02*
D03*
Y863600D02*
D03*
Y838200D02*
D03*
D53*
X1168400Y965200D02*
D03*
X736600Y533400D02*
D03*
D54*
X711200Y1092200D02*
D03*
D55*
X736600D02*
D03*
X762000D02*
D03*
D56*
X711200Y466400D02*
D03*
Y406400D02*
D03*
X791200Y466400D02*
D03*
Y406400D02*
D03*
D57*
X736600Y1168450D02*
D03*
D58*
X864400Y1218400D02*
D03*
D59*
X814400Y1168400D02*
D03*
X914400D02*
D03*
X839400D02*
D03*
D60*
X864400D02*
D03*
X814400Y1218400D02*
D03*
X914400D02*
D03*
D61*
X1193800Y914400D02*
D03*
Y889000D02*
D03*
Y863600D02*
D03*
Y838200D02*
D03*
Y812800D02*
D03*
Y787400D02*
D03*
Y762000D02*
D03*
Y736600D02*
D03*
Y711200D02*
D03*
Y685800D02*
D03*
X1117600D02*
D03*
Y711200D02*
D03*
Y736600D02*
D03*
Y762000D02*
D03*
Y787400D02*
D03*
Y812800D02*
D03*
Y838200D02*
D03*
Y863600D02*
D03*
Y889000D02*
D03*
X1193800Y635000D02*
D03*
Y609600D02*
D03*
Y584200D02*
D03*
Y558800D02*
D03*
Y533400D02*
D03*
Y508000D02*
D03*
Y482600D02*
D03*
Y457200D02*
D03*
Y431800D02*
D03*
Y406400D02*
D03*
X1117600D02*
D03*
Y431800D02*
D03*
Y457200D02*
D03*
Y482600D02*
D03*
Y508000D02*
D03*
Y533400D02*
D03*
Y558800D02*
D03*
Y584200D02*
D03*
Y609600D02*
D03*
D62*
Y914400D02*
D03*
Y635000D02*
D03*
D63*
X968248Y494538D02*
D03*
X1004824Y850900D02*
D03*
X1228344Y904494D02*
D03*
X978408Y509270D02*
D03*
M02*
