G04*
G04 #@! TF.GenerationSoftware,Altium Limited,Altium Designer,23.3.1 (30)*
G04*
G04 Layer_Color=128*
%FSLAX44Y44*%
%MOMM*%
G71*
G04*
G04 #@! TF.SameCoordinates,D36B0BC1-D60A-48D3-9530-44C1F81AE03C*
G04*
G04*
G04 #@! TF.FilePolarity,Positive*
G04*
G01*
G75*
%ADD11C,0.1270*%
D11*
X829950Y558800D02*
X846450D01*
X838200Y550550D02*
Y567050D01*
X982350Y558800D02*
X998850D01*
X990600Y550550D02*
Y567050D01*
X982350Y965200D02*
X998850D01*
X990600Y956950D02*
Y973450D01*
X829950Y965200D02*
X846450D01*
X838200Y956950D02*
Y973450D01*
X985520Y939800D02*
X995680D01*
X990600Y934720D02*
Y944880D01*
X985520Y914400D02*
X995680D01*
X990600Y909320D02*
Y919480D01*
X985520Y889000D02*
X995680D01*
X990600Y883920D02*
Y894080D01*
X985520Y863600D02*
X995680D01*
X990600Y858520D02*
Y868680D01*
X985520Y838200D02*
X995680D01*
X990600Y833120D02*
Y843280D01*
X985520Y812800D02*
X995680D01*
X990600Y807720D02*
Y817880D01*
X985520Y787400D02*
X995680D01*
X990600Y782320D02*
Y792480D01*
X985520Y762000D02*
X995680D01*
X990600Y756920D02*
Y767080D01*
X985520Y736600D02*
X995680D01*
X990600Y731520D02*
Y741680D01*
X985520Y711200D02*
X995680D01*
X990600Y706120D02*
Y716280D01*
X985520Y685800D02*
X995680D01*
X990600Y680720D02*
Y690880D01*
X985520Y660400D02*
X995680D01*
X990600Y655320D02*
Y665480D01*
X985520Y635000D02*
X995680D01*
X990600Y629920D02*
Y640080D01*
X985520Y609600D02*
X995680D01*
X990600Y604520D02*
Y614680D01*
X985520Y584200D02*
X995680D01*
X990600Y579120D02*
Y589280D01*
X833120Y584200D02*
X843280D01*
X838200Y579120D02*
Y589280D01*
X833120Y609600D02*
X843280D01*
X838200Y604520D02*
Y614680D01*
X833120Y635000D02*
X843280D01*
X838200Y629920D02*
Y640080D01*
X833120Y660400D02*
X843280D01*
X838200Y655320D02*
Y665480D01*
X833120Y685800D02*
X843280D01*
X838200Y680720D02*
Y690880D01*
X833120Y711200D02*
X843280D01*
X838200Y706120D02*
Y716280D01*
X833120Y736600D02*
X843280D01*
X838200Y731520D02*
Y741680D01*
X833120Y762000D02*
X843280D01*
X838200Y756920D02*
Y767080D01*
X833120Y787400D02*
X843280D01*
X838200Y782320D02*
Y792480D01*
X833120Y812800D02*
X843280D01*
X838200Y807720D02*
Y817880D01*
X833120Y838200D02*
X843280D01*
X838200Y833120D02*
Y843280D01*
X833120Y863600D02*
X843280D01*
X838200Y858520D02*
Y868680D01*
X833120Y889000D02*
X843280D01*
X838200Y883920D02*
Y894080D01*
X833120Y914400D02*
X843280D01*
X838200Y909320D02*
Y919480D01*
X833120Y939800D02*
X843280D01*
X838200Y934720D02*
Y944880D01*
X1012750Y469900D02*
X1019250D01*
X1016000Y466650D02*
Y473150D01*
X860350Y469900D02*
X866850D01*
X863600Y466650D02*
Y473150D01*
X860350Y393700D02*
X866850D01*
X863600Y390450D02*
Y396950D01*
X1012750Y393700D02*
X1019250D01*
X1016000Y390450D02*
Y396950D01*
X1088200Y990600D02*
X1096200D01*
X1092200Y986600D02*
Y994600D01*
X1037400Y990600D02*
X1045400D01*
X1041400Y986600D02*
Y994600D01*
X1011000Y1188800D02*
X1021000D01*
X1016000Y1183800D02*
Y1193800D01*
X1011000Y1128800D02*
X1021000D01*
X1016000Y1123800D02*
Y1133800D01*
X956000Y1158800D02*
X982000D01*
X969000Y1145800D02*
Y1171800D01*
X650400Y1270000D02*
X670400D01*
X660400Y1260000D02*
Y1280000D01*
X1234600Y1270000D02*
X1254600D01*
X1244600Y1260000D02*
Y1280000D01*
X1234600Y355600D02*
X1254600D01*
X1244600Y345600D02*
Y365600D01*
X650400Y355600D02*
X670400D01*
X660400Y345600D02*
Y365600D01*
X1009200Y1041400D02*
X1022900D01*
X1016050Y1034550D02*
Y1048250D01*
X1034550Y1041400D02*
X1048250D01*
X1041400Y1034550D02*
Y1048250D01*
X1059900Y1041400D02*
X1073600D01*
X1066750Y1034550D02*
Y1048250D01*
X1162400Y990600D02*
X1174400D01*
X1168400Y984600D02*
Y996600D01*
X1162400Y965200D02*
X1174400D01*
X1168400Y959200D02*
Y971200D01*
X835250Y1066800D02*
X842750D01*
X839000Y1063050D02*
Y1070550D01*
X935250Y1066800D02*
X942750D01*
X939000Y1063050D02*
Y1070550D01*
X1088450Y1243800D02*
X1095950D01*
X1092200Y1240050D02*
Y1247550D01*
X1088450Y1143800D02*
X1095950D01*
X1092200Y1140050D02*
Y1147550D01*
X704750Y1092200D02*
X717650D01*
X711200Y1085750D02*
Y1098650D01*
X730150Y1092200D02*
X743050D01*
X736600Y1085750D02*
Y1098650D01*
X755550Y1092200D02*
X768450D01*
X762000Y1085750D02*
Y1098650D01*
X731100Y609600D02*
X742100D01*
X736600Y604100D02*
Y615100D01*
X731100Y635000D02*
X742100D01*
X736600Y629500D02*
Y640500D01*
X731100Y660400D02*
X742100D01*
X736600Y654900D02*
Y665900D01*
X731100Y685800D02*
X742100D01*
X736600Y680300D02*
Y691300D01*
X731100Y711200D02*
X742100D01*
X736600Y705700D02*
Y716700D01*
X731100Y736600D02*
X742100D01*
X736600Y731100D02*
Y742100D01*
X731100Y762000D02*
X742100D01*
X736600Y756500D02*
Y767500D01*
X731100Y787400D02*
X742100D01*
X736600Y781900D02*
Y792900D01*
X705950Y466400D02*
X716450D01*
X711200Y461150D02*
Y471650D01*
X705950Y406400D02*
X716450D01*
X711200Y401150D02*
Y411650D01*
X785950Y466400D02*
X796450D01*
X791200Y461150D02*
Y471650D01*
X785950Y406400D02*
X796450D01*
X791200Y401150D02*
Y411650D01*
X730600Y533400D02*
X742600D01*
X736600Y527400D02*
Y539400D01*
X730600Y558800D02*
X742600D01*
X736600Y552800D02*
Y564800D01*
X730600Y914400D02*
X742600D01*
X736600Y908400D02*
Y920400D01*
X730600Y889000D02*
X742600D01*
X736600Y883000D02*
Y895000D01*
X730600Y863600D02*
X742600D01*
X736600Y857600D02*
Y869600D01*
X730600Y838200D02*
X742600D01*
X736600Y832200D02*
Y844200D01*
X729750Y1168450D02*
X743450D01*
X736600Y1161600D02*
Y1175300D01*
X729750Y1193800D02*
X743450D01*
X736600Y1186950D02*
Y1200650D01*
X729750Y1219150D02*
X743450D01*
X736600Y1212300D02*
Y1226000D01*
X859400Y1218400D02*
X869400D01*
X864400Y1213400D02*
Y1223400D01*
X809400Y1168400D02*
X819400D01*
X814400Y1163400D02*
Y1173400D01*
X909400Y1168400D02*
X919400D01*
X914400Y1163400D02*
Y1173400D01*
X856400Y1168400D02*
X872400D01*
X864400Y1160400D02*
Y1176400D01*
X806400Y1218400D02*
X822400D01*
X814400Y1210400D02*
Y1226400D01*
X906400Y1218400D02*
X922400D01*
X914400Y1210400D02*
Y1226400D01*
X834400Y1168400D02*
X844400D01*
X839400Y1163400D02*
Y1173400D01*
X1162900Y1066800D02*
X1173900D01*
X1168400Y1061300D02*
Y1072300D01*
X1162900Y1092200D02*
X1173900D01*
X1168400Y1086700D02*
Y1097700D01*
X1162900Y1117600D02*
X1173900D01*
X1168400Y1112100D02*
Y1123100D01*
X1162900Y1143000D02*
X1173900D01*
X1168400Y1137500D02*
Y1148500D01*
X1162900Y1168400D02*
X1173900D01*
X1168400Y1162900D02*
Y1173900D01*
X1162900Y1193800D02*
X1173900D01*
X1168400Y1188300D02*
Y1199300D01*
X1162900Y1219200D02*
X1173900D01*
X1168400Y1213700D02*
Y1224700D01*
X1162900Y1244600D02*
X1173900D01*
X1168400Y1239100D02*
Y1250100D01*
X1189800Y914400D02*
X1197800D01*
X1193800Y910400D02*
Y918400D01*
X1189800Y889000D02*
X1197800D01*
X1193800Y885000D02*
Y893000D01*
X1189800Y863600D02*
X1197800D01*
X1193800Y859600D02*
Y867600D01*
X1189800Y838200D02*
X1197800D01*
X1193800Y834200D02*
Y842200D01*
X1189800Y812800D02*
X1197800D01*
X1193800Y808800D02*
Y816800D01*
X1189800Y787400D02*
X1197800D01*
X1193800Y783400D02*
Y791400D01*
X1189800Y762000D02*
X1197800D01*
X1193800Y758000D02*
Y766000D01*
X1189800Y736600D02*
X1197800D01*
X1193800Y732600D02*
Y740600D01*
X1189800Y711200D02*
X1197800D01*
X1193800Y707200D02*
Y715200D01*
X1189800Y685800D02*
X1197800D01*
X1193800Y681800D02*
Y689800D01*
X1113600Y685800D02*
X1121600D01*
X1117600Y681800D02*
Y689800D01*
X1113600Y711200D02*
X1121600D01*
X1117600Y707200D02*
Y715200D01*
X1113600Y736600D02*
X1121600D01*
X1117600Y732600D02*
Y740600D01*
X1113600Y762000D02*
X1121600D01*
X1117600Y758000D02*
Y766000D01*
X1113600Y787400D02*
X1121600D01*
X1117600Y783400D02*
Y791400D01*
X1113600Y812800D02*
X1121600D01*
X1117600Y808800D02*
Y816800D01*
X1113600Y838200D02*
X1121600D01*
X1117600Y834200D02*
Y842200D01*
X1113600Y863600D02*
X1121600D01*
X1117600Y859600D02*
Y867600D01*
X1113600Y889000D02*
X1121600D01*
X1117600Y885000D02*
Y893000D01*
X1113600Y914400D02*
X1121600D01*
X1117600Y910400D02*
Y918400D01*
X1189800Y635000D02*
X1197800D01*
X1193800Y631000D02*
Y639000D01*
X1189800Y609600D02*
X1197800D01*
X1193800Y605600D02*
Y613600D01*
X1189800Y584200D02*
X1197800D01*
X1193800Y580200D02*
Y588200D01*
X1189800Y558800D02*
X1197800D01*
X1193800Y554800D02*
Y562800D01*
X1189800Y533400D02*
X1197800D01*
X1193800Y529400D02*
Y537400D01*
X1189800Y508000D02*
X1197800D01*
X1193800Y504000D02*
Y512000D01*
X1189800Y482600D02*
X1197800D01*
X1193800Y478600D02*
Y486600D01*
X1189800Y457200D02*
X1197800D01*
X1193800Y453200D02*
Y461200D01*
X1189800Y431800D02*
X1197800D01*
X1193800Y427800D02*
Y435800D01*
X1189800Y406400D02*
X1197800D01*
X1193800Y402400D02*
Y410400D01*
X1113600Y406400D02*
X1121600D01*
X1117600Y402400D02*
Y410400D01*
X1113600Y431800D02*
X1121600D01*
X1117600Y427800D02*
Y435800D01*
X1113600Y457200D02*
X1121600D01*
X1117600Y453200D02*
Y461200D01*
X1113600Y482600D02*
X1121600D01*
X1117600Y478600D02*
Y486600D01*
X1113600Y508000D02*
X1121600D01*
X1117600Y504000D02*
Y512000D01*
X1113600Y533400D02*
X1121600D01*
X1117600Y529400D02*
Y537400D01*
X1113600Y558800D02*
X1121600D01*
X1117600Y554800D02*
Y562800D01*
X1113600Y584200D02*
X1121600D01*
X1117600Y580200D02*
Y588200D01*
X1113600Y609600D02*
X1121600D01*
X1117600Y605600D02*
Y613600D01*
X1113600Y635000D02*
X1121600D01*
X1117600Y631000D02*
Y639000D01*
X758000Y1041400D02*
X766000D01*
X762000Y1037400D02*
Y1045400D01*
X707200Y1041400D02*
X715200D01*
X711200Y1037400D02*
Y1045400D01*
X707200Y990600D02*
X715200D01*
X711200Y986600D02*
Y994600D01*
X758000Y990600D02*
X766000D01*
X762000Y986600D02*
Y994600D01*
X964692Y494538D02*
X971804D01*
X968248Y490982D02*
Y498094D01*
X1001268Y850900D02*
X1008380D01*
X1004824Y847344D02*
Y854456D01*
X1224788Y904494D02*
X1231900D01*
X1228344Y900938D02*
Y908050D01*
X974852Y509270D02*
X981964D01*
X978408Y505714D02*
Y512826D01*
M02*
