M48
;Layer_Color=9474304
;FILE_FORMAT=4:4
METRIC,LZ
;TYPE=PLATED
T1F00S00C0.6500
T2F00S00C0.7112
T3F00S00C0.7500
T4F00S00C0.8000
T7F00S00C1.0160
T8F00S00C1.0500
T9F00S00C1.1000
T10F00S00C1.2000
T11F00S00C1.2900
T12F00S00C1.3700
T13F00S00C2.0000
;TYPE=NON_PLATED
T14F00S00C1.6000
T15F00S00C1.6500
%
T01
X008636Y003937
X01016
Y004699
X008636
T02
X00968248Y00494538
X00978408Y0050927
X01004824Y008509
X01228344Y00904494
T03
X00839Y010668
X00939
X010922Y011438
Y012438
T04
X011938Y004064
Y004318
Y004572
Y004826
Y00508
Y005334
Y005588
Y005842
Y006096
Y00635
Y006858
Y007112
Y007366
Y00762
Y007874
X011176
Y00762
Y007366
Y007112
Y006858
Y00635
Y006096
Y005842
Y005588
Y005334
Y00508
Y004826
Y004572
Y004318
Y004064
X00762Y009906
Y010414
X007112
Y009906
X010414
X010922
X011176Y009144
Y00889
Y008636
Y008382
Y008128
X011938
Y008382
Y008636
Y00889
Y009144
T07
X008382Y005842
Y006096
Y00635
Y006604
Y006858
Y007112
Y007366
Y00762
Y007874
X009906
Y00762
Y007366
Y007112
Y006858
Y006604
Y00635
Y006096
Y005842
Y008128
Y008382
Y008636
Y00889
Y009144
Y009398
X008382
Y009144
Y00889
Y008636
Y008382
Y008128
T08
X007112Y004064
Y004664
X007912
Y004064
T09
X007366Y006096
Y00635
Y006604
Y006858
Y007112
Y007366
Y00762
Y007874
X011684Y010668
Y010922
Y011176
Y01143
Y011684
Y011938
Y012192
Y012446
T10
X007366Y005334
Y005588
Y008382
Y008636
Y00889
Y009144
X011684Y009652
Y009906
T11
X007112Y010922
X007366
X00762
T12
X007366Y0116845
X0101605Y010414
X010414
X0106675
X007366Y011938
Y0121915
T13
X006604Y003556
X012446
Y0127
X006604
T14
X008644Y011684
X008144Y012184
X009144
T15
X008382Y005588
X009906
Y009652
X008382
M30
