G04*
G04 #@! TF.GenerationSoftware,Altium Limited,Altium Designer,23.3.1 (30)*
G04*
G04 Layer_Color=2752767*
%FSLAX44Y44*%
%MOMM*%
G71*
G04*
G04 #@! TF.SameCoordinates,D36B0BC1-D60A-48D3-9530-44C1F81AE03C*
G04*
G04*
G04 #@! TF.FilePolarity,Positive*
G04*
G01*
G75*
%ADD11C,0.1270*%
%ADD65C,0.1693*%
%ADD66C,0.1016*%
D11*
X838200Y553720D02*
X833120Y563880D01*
X843280D01*
X838200Y553720D01*
X990600D02*
X985520Y563880D01*
X995680D01*
X990600Y553720D01*
Y960120D02*
X985520Y970280D01*
X995680D01*
X990600Y960120D01*
X838200D02*
X833120Y970280D01*
X843280D01*
X838200Y960120D01*
X990600Y934720D02*
X993140Y937260D01*
X995680D01*
X993140Y939800D01*
X995680Y942340D01*
X993140D01*
X990600Y944880D01*
X988060Y942340D01*
X985520D01*
X988060Y939800D01*
X985520Y937260D01*
X988060D01*
X990600Y934720D01*
Y909320D02*
X993140Y911860D01*
X995680D01*
X993140Y914400D01*
X995680Y916940D01*
X993140D01*
X990600Y919480D01*
X988060Y916940D01*
X985520D01*
X988060Y914400D01*
X985520Y911860D01*
X988060D01*
X990600Y909320D01*
Y883920D02*
X993140Y886460D01*
X995680D01*
X993140Y889000D01*
X995680Y891540D01*
X993140D01*
X990600Y894080D01*
X988060Y891540D01*
X985520D01*
X988060Y889000D01*
X985520Y886460D01*
X988060D01*
X990600Y883920D01*
Y858520D02*
X993140Y861060D01*
X995680D01*
X993140Y863600D01*
X995680Y866140D01*
X993140D01*
X990600Y868680D01*
X988060Y866140D01*
X985520D01*
X988060Y863600D01*
X985520Y861060D01*
X988060D01*
X990600Y858520D01*
Y833120D02*
X993140Y835660D01*
X995680D01*
X993140Y838200D01*
X995680Y840740D01*
X993140D01*
X990600Y843280D01*
X988060Y840740D01*
X985520D01*
X988060Y838200D01*
X985520Y835660D01*
X988060D01*
X990600Y833120D01*
Y807720D02*
X993140Y810260D01*
X995680D01*
X993140Y812800D01*
X995680Y815340D01*
X993140D01*
X990600Y817880D01*
X988060Y815340D01*
X985520D01*
X988060Y812800D01*
X985520Y810260D01*
X988060D01*
X990600Y807720D01*
Y782320D02*
X993140Y784860D01*
X995680D01*
X993140Y787400D01*
X995680Y789940D01*
X993140D01*
X990600Y792480D01*
X988060Y789940D01*
X985520D01*
X988060Y787400D01*
X985520Y784860D01*
X988060D01*
X990600Y782320D01*
Y756920D02*
X993140Y759460D01*
X995680D01*
X993140Y762000D01*
X995680Y764540D01*
X993140D01*
X990600Y767080D01*
X988060Y764540D01*
X985520D01*
X988060Y762000D01*
X985520Y759460D01*
X988060D01*
X990600Y756920D01*
Y731520D02*
X993140Y734060D01*
X995680D01*
X993140Y736600D01*
X995680Y739140D01*
X993140D01*
X990600Y741680D01*
X988060Y739140D01*
X985520D01*
X988060Y736600D01*
X985520Y734060D01*
X988060D01*
X990600Y731520D01*
Y706120D02*
X993140Y708660D01*
X995680D01*
X993140Y711200D01*
X995680Y713740D01*
X993140D01*
X990600Y716280D01*
X988060Y713740D01*
X985520D01*
X988060Y711200D01*
X985520Y708660D01*
X988060D01*
X990600Y706120D01*
Y680720D02*
X993140Y683260D01*
X995680D01*
X993140Y685800D01*
X995680Y688340D01*
X993140D01*
X990600Y690880D01*
X988060Y688340D01*
X985520D01*
X988060Y685800D01*
X985520Y683260D01*
X988060D01*
X990600Y680720D01*
Y655320D02*
X993140Y657860D01*
X995680D01*
X993140Y660400D01*
X995680Y662940D01*
X993140D01*
X990600Y665480D01*
X988060Y662940D01*
X985520D01*
X988060Y660400D01*
X985520Y657860D01*
X988060D01*
X990600Y655320D01*
Y629920D02*
X993140Y632460D01*
X995680D01*
X993140Y635000D01*
X995680Y637540D01*
X993140D01*
X990600Y640080D01*
X988060Y637540D01*
X985520D01*
X988060Y635000D01*
X985520Y632460D01*
X988060D01*
X990600Y629920D01*
Y604520D02*
X993140Y607060D01*
X995680D01*
X993140Y609600D01*
X995680Y612140D01*
X993140D01*
X990600Y614680D01*
X988060Y612140D01*
X985520D01*
X988060Y609600D01*
X985520Y607060D01*
X988060D01*
X990600Y604520D01*
Y579120D02*
X993140Y581660D01*
X995680D01*
X993140Y584200D01*
X995680Y586740D01*
X993140D01*
X990600Y589280D01*
X988060Y586740D01*
X985520D01*
X988060Y584200D01*
X985520Y581660D01*
X988060D01*
X990600Y579120D01*
X838200D02*
X840740Y581660D01*
X843280D01*
X840740Y584200D01*
X843280Y586740D01*
X840740D01*
X838200Y589280D01*
X835660Y586740D01*
X833120D01*
X835660Y584200D01*
X833120Y581660D01*
X835660D01*
X838200Y579120D01*
Y604520D02*
X840740Y607060D01*
X843280D01*
X840740Y609600D01*
X843280Y612140D01*
X840740D01*
X838200Y614680D01*
X835660Y612140D01*
X833120D01*
X835660Y609600D01*
X833120Y607060D01*
X835660D01*
X838200Y604520D01*
Y629920D02*
X840740Y632460D01*
X843280D01*
X840740Y635000D01*
X843280Y637540D01*
X840740D01*
X838200Y640080D01*
X835660Y637540D01*
X833120D01*
X835660Y635000D01*
X833120Y632460D01*
X835660D01*
X838200Y629920D01*
Y655320D02*
X840740Y657860D01*
X843280D01*
X840740Y660400D01*
X843280Y662940D01*
X840740D01*
X838200Y665480D01*
X835660Y662940D01*
X833120D01*
X835660Y660400D01*
X833120Y657860D01*
X835660D01*
X838200Y655320D01*
Y680720D02*
X840740Y683260D01*
X843280D01*
X840740Y685800D01*
X843280Y688340D01*
X840740D01*
X838200Y690880D01*
X835660Y688340D01*
X833120D01*
X835660Y685800D01*
X833120Y683260D01*
X835660D01*
X838200Y680720D01*
Y706120D02*
X840740Y708660D01*
X843280D01*
X840740Y711200D01*
X843280Y713740D01*
X840740D01*
X838200Y716280D01*
X835660Y713740D01*
X833120D01*
X835660Y711200D01*
X833120Y708660D01*
X835660D01*
X838200Y706120D01*
Y731520D02*
X840740Y734060D01*
X843280D01*
X840740Y736600D01*
X843280Y739140D01*
X840740D01*
X838200Y741680D01*
X835660Y739140D01*
X833120D01*
X835660Y736600D01*
X833120Y734060D01*
X835660D01*
X838200Y731520D01*
Y756920D02*
X840740Y759460D01*
X843280D01*
X840740Y762000D01*
X843280Y764540D01*
X840740D01*
X838200Y767080D01*
X835660Y764540D01*
X833120D01*
X835660Y762000D01*
X833120Y759460D01*
X835660D01*
X838200Y756920D01*
Y782320D02*
X840740Y784860D01*
X843280D01*
X840740Y787400D01*
X843280Y789940D01*
X840740D01*
X838200Y792480D01*
X835660Y789940D01*
X833120D01*
X835660Y787400D01*
X833120Y784860D01*
X835660D01*
X838200Y782320D01*
Y807720D02*
X840740Y810260D01*
X843280D01*
X840740Y812800D01*
X843280Y815340D01*
X840740D01*
X838200Y817880D01*
X835660Y815340D01*
X833120D01*
X835660Y812800D01*
X833120Y810260D01*
X835660D01*
X838200Y807720D01*
Y833120D02*
X840740Y835660D01*
X843280D01*
X840740Y838200D01*
X843280Y840740D01*
X840740D01*
X838200Y843280D01*
X835660Y840740D01*
X833120D01*
X835660Y838200D01*
X833120Y835660D01*
X835660D01*
X838200Y833120D01*
Y858520D02*
X840740Y861060D01*
X843280D01*
X840740Y863600D01*
X843280Y866140D01*
X840740D01*
X838200Y868680D01*
X835660Y866140D01*
X833120D01*
X835660Y863600D01*
X833120Y861060D01*
X835660D01*
X838200Y858520D01*
Y883920D02*
X840740Y886460D01*
X843280D01*
X840740Y889000D01*
X843280Y891540D01*
X840740D01*
X838200Y894080D01*
X835660Y891540D01*
X833120D01*
X835660Y889000D01*
X833120Y886460D01*
X835660D01*
X838200Y883920D01*
Y909320D02*
X840740Y911860D01*
X843280D01*
X840740Y914400D01*
X843280Y916940D01*
X840740D01*
X838200Y919480D01*
X835660Y916940D01*
X833120D01*
X835660Y914400D01*
X833120Y911860D01*
X835660D01*
X838200Y909320D01*
Y934720D02*
X840740Y937260D01*
X843280D01*
X840740Y939800D01*
X843280Y942340D01*
X840740D01*
X838200Y944880D01*
X835660Y942340D01*
X833120D01*
X835660Y939800D01*
X833120Y937260D01*
X835660D01*
X838200Y934720D01*
X1013460Y467360D02*
Y464820D01*
X1018540D01*
Y467360D01*
X1021080D01*
Y472440D01*
X1018540D01*
Y474980D01*
X1013460D01*
Y472440D01*
X1010920D01*
Y467360D01*
X1013460D01*
X1014476Y468376D02*
Y466852D01*
X1017524D01*
Y468376D01*
X1019048D01*
Y471424D01*
X1017524D01*
Y472948D01*
X1014476D01*
Y471424D01*
X1012952D01*
Y468376D01*
X1014476D01*
X861060Y467360D02*
Y464820D01*
X866140D01*
Y467360D01*
X868680D01*
Y472440D01*
X866140D01*
Y474980D01*
X861060D01*
Y472440D01*
X858520D01*
Y467360D01*
X861060D01*
X862076Y468376D02*
Y466852D01*
X865124D01*
Y468376D01*
X866648D01*
Y471424D01*
X865124D01*
Y472948D01*
X862076D01*
Y471424D01*
X860552D01*
Y468376D01*
X862076D01*
X861060Y391160D02*
Y388620D01*
X866140D01*
Y391160D01*
X868680D01*
Y396240D01*
X866140D01*
Y398780D01*
X861060D01*
Y396240D01*
X858520D01*
Y391160D01*
X861060D01*
X862076Y392176D02*
Y390652D01*
X865124D01*
Y392176D01*
X866648D01*
Y395224D01*
X865124D01*
Y396748D01*
X862076D01*
Y395224D01*
X860552D01*
Y392176D01*
X862076D01*
X1013460Y391160D02*
Y388620D01*
X1018540D01*
Y391160D01*
X1021080D01*
Y396240D01*
X1018540D01*
Y398780D01*
X1013460D01*
Y396240D01*
X1010920D01*
Y391160D01*
X1013460D01*
X1014476Y392176D02*
Y390652D01*
X1017524D01*
Y392176D01*
X1019048D01*
Y395224D01*
X1017524D01*
Y396748D01*
X1014476D01*
Y395224D01*
X1012952D01*
Y392176D01*
X1014476D01*
X1087120Y985520D02*
Y995680D01*
X1097280D01*
Y985520D01*
X1087120D01*
X1036320D02*
Y995680D01*
X1046480D01*
Y985520D01*
X1036320D01*
X1024464Y1199380D02*
X1022348Y1201496D01*
X1018116D01*
X1016000Y1199380D01*
Y1190916D01*
X1018116Y1188800D01*
X1022348D01*
X1024464Y1190916D01*
Y1139380D02*
X1022348Y1141496D01*
X1018116D01*
X1016000Y1139380D01*
Y1130916D01*
X1018116Y1128800D01*
X1022348D01*
X1024464Y1130916D01*
X969000Y1171496D02*
Y1158800D01*
X975348D01*
X977464Y1160916D01*
Y1169380D01*
X975348Y1171496D01*
X969000D01*
X655320Y1270000D02*
X660400Y1275080D01*
X665480Y1270000D01*
X660400Y1264920D01*
X655320Y1270000D01*
X1239520D02*
X1244600Y1275080D01*
X1249680Y1270000D01*
X1244600Y1264920D01*
X1239520Y1270000D01*
Y355600D02*
X1244600Y360680D01*
X1249680Y355600D01*
X1244600Y350520D01*
X1239520Y355600D01*
X655320D02*
X660400Y360680D01*
X665480Y355600D01*
X660400Y350520D01*
X655320Y355600D01*
X1163320Y985520D02*
Y995680D01*
X1173480D01*
Y985520D01*
X1163320D01*
X1165352Y987552D02*
Y993648D01*
X1171448D01*
Y987552D01*
X1165352D01*
X1163320Y960120D02*
Y970280D01*
X1173480D01*
Y960120D01*
X1163320D01*
X1165352Y962152D02*
Y968248D01*
X1171448D01*
Y962152D01*
X1165352D01*
X706120Y1087120D02*
X708660D01*
X711200Y1089660D01*
X713740Y1087120D01*
X716280D01*
Y1089660D01*
X713740Y1092200D01*
X716280Y1094740D01*
Y1097280D01*
X713740D01*
X711200Y1094740D01*
X708660Y1097280D01*
X706120D01*
Y1094740D01*
X708660Y1092200D01*
X706120Y1089660D01*
Y1087120D01*
X731520D02*
X734060D01*
X736600Y1089660D01*
X739140Y1087120D01*
X741680D01*
Y1089660D01*
X739140Y1092200D01*
X741680Y1094740D01*
Y1097280D01*
X739140D01*
X736600Y1094740D01*
X734060Y1097280D01*
X731520D01*
Y1094740D01*
X734060Y1092200D01*
X731520Y1089660D01*
Y1087120D01*
X756920D02*
X759460D01*
X762000Y1089660D01*
X764540Y1087120D01*
X767080D01*
Y1089660D01*
X764540Y1092200D01*
X767080Y1094740D01*
Y1097280D01*
X764540D01*
X762000Y1094740D01*
X759460Y1097280D01*
X756920D01*
Y1094740D01*
X759460Y1092200D01*
X756920Y1089660D01*
Y1087120D01*
X731520Y604520D02*
X734060Y609600D01*
X731520Y614680D01*
X736600Y612140D01*
X741680Y614680D01*
X739140Y609600D01*
X741680Y604520D01*
X736600Y607060D01*
X731520Y604520D01*
X733552Y606552D02*
X735076Y609600D01*
X733552Y612648D01*
X736600Y611124D01*
X739648Y612648D01*
X738124Y609600D01*
X739648Y606552D01*
X736600Y608076D01*
X733552Y606552D01*
X731520Y629920D02*
X734060Y635000D01*
X731520Y640080D01*
X736600Y637540D01*
X741680Y640080D01*
X739140Y635000D01*
X741680Y629920D01*
X736600Y632460D01*
X731520Y629920D01*
X733552Y631952D02*
X735076Y635000D01*
X733552Y638048D01*
X736600Y636524D01*
X739648Y638048D01*
X738124Y635000D01*
X739648Y631952D01*
X736600Y633476D01*
X733552Y631952D01*
X731520Y655320D02*
X734060Y660400D01*
X731520Y665480D01*
X736600Y662940D01*
X741680Y665480D01*
X739140Y660400D01*
X741680Y655320D01*
X736600Y657860D01*
X731520Y655320D01*
X733552Y657352D02*
X735076Y660400D01*
X733552Y663448D01*
X736600Y661924D01*
X739648Y663448D01*
X738124Y660400D01*
X739648Y657352D01*
X736600Y658876D01*
X733552Y657352D01*
X731520Y680720D02*
X734060Y685800D01*
X731520Y690880D01*
X736600Y688340D01*
X741680Y690880D01*
X739140Y685800D01*
X741680Y680720D01*
X736600Y683260D01*
X731520Y680720D01*
X733552Y682752D02*
X735076Y685800D01*
X733552Y688848D01*
X736600Y687324D01*
X739648Y688848D01*
X738124Y685800D01*
X739648Y682752D01*
X736600Y684276D01*
X733552Y682752D01*
X731520Y706120D02*
X734060Y711200D01*
X731520Y716280D01*
X736600Y713740D01*
X741680Y716280D01*
X739140Y711200D01*
X741680Y706120D01*
X736600Y708660D01*
X731520Y706120D01*
X733552Y708152D02*
X735076Y711200D01*
X733552Y714248D01*
X736600Y712724D01*
X739648Y714248D01*
X738124Y711200D01*
X739648Y708152D01*
X736600Y709676D01*
X733552Y708152D01*
X731520Y731520D02*
X734060Y736600D01*
X731520Y741680D01*
X736600Y739140D01*
X741680Y741680D01*
X739140Y736600D01*
X741680Y731520D01*
X736600Y734060D01*
X731520Y731520D01*
X733552Y733552D02*
X735076Y736600D01*
X733552Y739648D01*
X736600Y738124D01*
X739648Y739648D01*
X738124Y736600D01*
X739648Y733552D01*
X736600Y735076D01*
X733552Y733552D01*
X731520Y756920D02*
X734060Y762000D01*
X731520Y767080D01*
X736600Y764540D01*
X741680Y767080D01*
X739140Y762000D01*
X741680Y756920D01*
X736600Y759460D01*
X731520Y756920D01*
X733552Y758952D02*
X735076Y762000D01*
X733552Y765048D01*
X736600Y763524D01*
X739648Y765048D01*
X738124Y762000D01*
X739648Y758952D01*
X736600Y760476D01*
X733552Y758952D01*
X731520Y782320D02*
X734060Y787400D01*
X731520Y792480D01*
X736600Y789940D01*
X741680Y792480D01*
X739140Y787400D01*
X741680Y782320D01*
X736600Y784860D01*
X731520Y782320D01*
X733552Y784352D02*
X735076Y787400D01*
X733552Y790448D01*
X736600Y788924D01*
X739648Y790448D01*
X738124Y787400D01*
X739648Y784352D01*
X736600Y785876D01*
X733552Y784352D01*
X708660Y463860D02*
Y461320D01*
X713740D01*
Y463860D01*
X716280D01*
Y468940D01*
X713740D01*
Y471480D01*
X708660D01*
Y468940D01*
X706120D01*
Y463860D01*
X708660D01*
Y403860D02*
Y401320D01*
X713740D01*
Y403860D01*
X716280D01*
Y408940D01*
X713740D01*
Y411480D01*
X708660D01*
Y408940D01*
X706120D01*
Y403860D01*
X708660D01*
X788660Y463860D02*
Y461320D01*
X793740D01*
Y463860D01*
X796280D01*
Y468940D01*
X793740D01*
Y471480D01*
X788660D01*
Y468940D01*
X786120D01*
Y463860D01*
X788660D01*
Y403860D02*
Y401320D01*
X793740D01*
Y403860D01*
X796280D01*
Y408940D01*
X793740D01*
Y411480D01*
X788660D01*
Y408940D01*
X786120D01*
Y403860D01*
X788660D01*
X731520Y528320D02*
Y538480D01*
X741680D01*
Y528320D01*
X731520D01*
X733552Y530352D02*
Y536448D01*
X739648D01*
Y530352D01*
X733552D01*
X731520Y553720D02*
Y563880D01*
X741680D01*
Y553720D01*
X731520D01*
X733552Y555752D02*
Y561848D01*
X739648D01*
Y555752D01*
X733552D01*
X731520Y909320D02*
Y919480D01*
X741680D01*
Y909320D01*
X731520D01*
X733552Y911352D02*
Y917448D01*
X739648D01*
Y911352D01*
X733552D01*
X731520Y883920D02*
Y894080D01*
X741680D01*
Y883920D01*
X731520D01*
X733552Y885952D02*
Y892048D01*
X739648D01*
Y885952D01*
X733552D01*
X731520Y858520D02*
Y868680D01*
X741680D01*
Y858520D01*
X731520D01*
X733552Y860552D02*
Y866648D01*
X739648D01*
Y860552D01*
X733552D01*
X731520Y833120D02*
Y843280D01*
X741680D01*
Y833120D01*
X731520D01*
X733552Y835152D02*
Y841248D01*
X739648D01*
Y835152D01*
X733552D01*
X864400Y1213320D02*
X859320Y1223480D01*
X869480D01*
X864400Y1213320D01*
Y1215352D02*
X861352Y1221448D01*
X867448D01*
X864400Y1215352D01*
X814400Y1163320D02*
X809320Y1173480D01*
X819480D01*
X814400Y1163320D01*
Y1165352D02*
X811352Y1171448D01*
X817448D01*
X814400Y1165352D01*
X914400Y1163320D02*
X909320Y1173480D01*
X919480D01*
X914400Y1163320D01*
Y1165352D02*
X911352Y1171448D01*
X917448D01*
X914400Y1165352D01*
X864400Y1163320D02*
X866940Y1165860D01*
X869480D01*
X866940Y1168400D01*
X869480Y1170940D01*
X866940D01*
X864400Y1173480D01*
X861860Y1170940D01*
X859320D01*
X861860Y1168400D01*
X859320Y1165860D01*
X861860D01*
X864400Y1163320D01*
Y1165352D02*
X865924Y1166876D01*
X867448D01*
X865924Y1168400D01*
X867448Y1169924D01*
X865924D01*
X864400Y1171448D01*
X862876Y1169924D01*
X861352D01*
X862876Y1168400D01*
X861352Y1166876D01*
X862876D01*
X864400Y1165352D01*
X814400Y1213320D02*
X816940Y1215860D01*
X819480D01*
X816940Y1218400D01*
X819480Y1220940D01*
X816940D01*
X814400Y1223480D01*
X811860Y1220940D01*
X809320D01*
X811860Y1218400D01*
X809320Y1215860D01*
X811860D01*
X814400Y1213320D01*
Y1215352D02*
X815924Y1216876D01*
X817448D01*
X815924Y1218400D01*
X817448Y1219924D01*
X815924D01*
X814400Y1221448D01*
X812876Y1219924D01*
X811352D01*
X812876Y1218400D01*
X811352Y1216876D01*
X812876D01*
X814400Y1215352D01*
X914400Y1213320D02*
X916940Y1215860D01*
X919480D01*
X916940Y1218400D01*
X919480Y1220940D01*
X916940D01*
X914400Y1223480D01*
X911860Y1220940D01*
X909320D01*
X911860Y1218400D01*
X909320Y1215860D01*
X911860D01*
X914400Y1213320D01*
Y1215352D02*
X915924Y1216876D01*
X917448D01*
X915924Y1218400D01*
X917448Y1219924D01*
X915924D01*
X914400Y1221448D01*
X912876Y1219924D01*
X911352D01*
X912876Y1218400D01*
X911352Y1216876D01*
X912876D01*
X914400Y1215352D01*
X839400Y1163320D02*
X834320Y1173480D01*
X844480D01*
X839400Y1163320D01*
Y1165352D02*
X836352Y1171448D01*
X842448D01*
X839400Y1165352D01*
X1163320Y1061720D02*
X1165860Y1066800D01*
X1163320Y1071880D01*
X1168400Y1069340D01*
X1173480Y1071880D01*
X1170940Y1066800D01*
X1173480Y1061720D01*
X1168400Y1064260D01*
X1163320Y1061720D01*
X1165352Y1063752D02*
X1166876Y1066800D01*
X1165352Y1069848D01*
X1168400Y1068324D01*
X1171448Y1069848D01*
X1169924Y1066800D01*
X1171448Y1063752D01*
X1168400Y1065276D01*
X1165352Y1063752D01*
X1163320Y1087120D02*
X1165860Y1092200D01*
X1163320Y1097280D01*
X1168400Y1094740D01*
X1173480Y1097280D01*
X1170940Y1092200D01*
X1173480Y1087120D01*
X1168400Y1089660D01*
X1163320Y1087120D01*
X1165352Y1089152D02*
X1166876Y1092200D01*
X1165352Y1095248D01*
X1168400Y1093724D01*
X1171448Y1095248D01*
X1169924Y1092200D01*
X1171448Y1089152D01*
X1168400Y1090676D01*
X1165352Y1089152D01*
X1163320Y1112520D02*
X1165860Y1117600D01*
X1163320Y1122680D01*
X1168400Y1120140D01*
X1173480Y1122680D01*
X1170940Y1117600D01*
X1173480Y1112520D01*
X1168400Y1115060D01*
X1163320Y1112520D01*
X1165352Y1114552D02*
X1166876Y1117600D01*
X1165352Y1120648D01*
X1168400Y1119124D01*
X1171448Y1120648D01*
X1169924Y1117600D01*
X1171448Y1114552D01*
X1168400Y1116076D01*
X1165352Y1114552D01*
X1163320Y1137920D02*
X1165860Y1143000D01*
X1163320Y1148080D01*
X1168400Y1145540D01*
X1173480Y1148080D01*
X1170940Y1143000D01*
X1173480Y1137920D01*
X1168400Y1140460D01*
X1163320Y1137920D01*
X1165352Y1139952D02*
X1166876Y1143000D01*
X1165352Y1146048D01*
X1168400Y1144524D01*
X1171448Y1146048D01*
X1169924Y1143000D01*
X1171448Y1139952D01*
X1168400Y1141476D01*
X1165352Y1139952D01*
X1163320Y1163320D02*
X1165860Y1168400D01*
X1163320Y1173480D01*
X1168400Y1170940D01*
X1173480Y1173480D01*
X1170940Y1168400D01*
X1173480Y1163320D01*
X1168400Y1165860D01*
X1163320Y1163320D01*
X1165352Y1165352D02*
X1166876Y1168400D01*
X1165352Y1171448D01*
X1168400Y1169924D01*
X1171448Y1171448D01*
X1169924Y1168400D01*
X1171448Y1165352D01*
X1168400Y1166876D01*
X1165352Y1165352D01*
X1163320Y1188720D02*
X1165860Y1193800D01*
X1163320Y1198880D01*
X1168400Y1196340D01*
X1173480Y1198880D01*
X1170940Y1193800D01*
X1173480Y1188720D01*
X1168400Y1191260D01*
X1163320Y1188720D01*
X1165352Y1190752D02*
X1166876Y1193800D01*
X1165352Y1196848D01*
X1168400Y1195324D01*
X1171448Y1196848D01*
X1169924Y1193800D01*
X1171448Y1190752D01*
X1168400Y1192276D01*
X1165352Y1190752D01*
X1163320Y1214120D02*
X1165860Y1219200D01*
X1163320Y1224280D01*
X1168400Y1221740D01*
X1173480Y1224280D01*
X1170940Y1219200D01*
X1173480Y1214120D01*
X1168400Y1216660D01*
X1163320Y1214120D01*
X1165352Y1216152D02*
X1166876Y1219200D01*
X1165352Y1222248D01*
X1168400Y1220724D01*
X1171448Y1222248D01*
X1169924Y1219200D01*
X1171448Y1216152D01*
X1168400Y1217676D01*
X1165352Y1216152D01*
X1163320Y1239520D02*
X1165860Y1244600D01*
X1163320Y1249680D01*
X1168400Y1247140D01*
X1173480Y1249680D01*
X1170940Y1244600D01*
X1173480Y1239520D01*
X1168400Y1242060D01*
X1163320Y1239520D01*
X1165352Y1241552D02*
X1166876Y1244600D01*
X1165352Y1247648D01*
X1168400Y1246124D01*
X1171448Y1247648D01*
X1169924Y1244600D01*
X1171448Y1241552D01*
X1168400Y1243076D01*
X1165352Y1241552D01*
X1188720Y909320D02*
Y919480D01*
X1198880D01*
Y909320D01*
X1188720D01*
Y883920D02*
Y894080D01*
X1198880D01*
Y883920D01*
X1188720D01*
Y858520D02*
Y868680D01*
X1198880D01*
Y858520D01*
X1188720D01*
Y833120D02*
Y843280D01*
X1198880D01*
Y833120D01*
X1188720D01*
Y807720D02*
Y817880D01*
X1198880D01*
Y807720D01*
X1188720D01*
Y782320D02*
Y792480D01*
X1198880D01*
Y782320D01*
X1188720D01*
Y756920D02*
Y767080D01*
X1198880D01*
Y756920D01*
X1188720D01*
Y731520D02*
Y741680D01*
X1198880D01*
Y731520D01*
X1188720D01*
Y706120D02*
Y716280D01*
X1198880D01*
Y706120D01*
X1188720D01*
Y680720D02*
Y690880D01*
X1198880D01*
Y680720D01*
X1188720D01*
X1112520D02*
Y690880D01*
X1122680D01*
Y680720D01*
X1112520D01*
Y706120D02*
Y716280D01*
X1122680D01*
Y706120D01*
X1112520D01*
Y731520D02*
Y741680D01*
X1122680D01*
Y731520D01*
X1112520D01*
Y756920D02*
Y767080D01*
X1122680D01*
Y756920D01*
X1112520D01*
Y782320D02*
Y792480D01*
X1122680D01*
Y782320D01*
X1112520D01*
Y807720D02*
Y817880D01*
X1122680D01*
Y807720D01*
X1112520D01*
Y833120D02*
Y843280D01*
X1122680D01*
Y833120D01*
X1112520D01*
Y858520D02*
Y868680D01*
X1122680D01*
Y858520D01*
X1112520D01*
Y883920D02*
Y894080D01*
X1122680D01*
Y883920D01*
X1112520D01*
Y909320D02*
Y919480D01*
X1122680D01*
Y909320D01*
X1112520D01*
X1188720Y629920D02*
Y640080D01*
X1198880D01*
Y629920D01*
X1188720D01*
Y604520D02*
Y614680D01*
X1198880D01*
Y604520D01*
X1188720D01*
Y579120D02*
Y589280D01*
X1198880D01*
Y579120D01*
X1188720D01*
Y553720D02*
Y563880D01*
X1198880D01*
Y553720D01*
X1188720D01*
Y528320D02*
Y538480D01*
X1198880D01*
Y528320D01*
X1188720D01*
Y502920D02*
Y513080D01*
X1198880D01*
Y502920D01*
X1188720D01*
Y477520D02*
Y487680D01*
X1198880D01*
Y477520D01*
X1188720D01*
Y452120D02*
Y462280D01*
X1198880D01*
Y452120D01*
X1188720D01*
Y426720D02*
Y436880D01*
X1198880D01*
Y426720D01*
X1188720D01*
Y401320D02*
Y411480D01*
X1198880D01*
Y401320D01*
X1188720D01*
X1112520D02*
Y411480D01*
X1122680D01*
Y401320D01*
X1112520D01*
Y426720D02*
Y436880D01*
X1122680D01*
Y426720D01*
X1112520D01*
Y452120D02*
Y462280D01*
X1122680D01*
Y452120D01*
X1112520D01*
Y477520D02*
Y487680D01*
X1122680D01*
Y477520D01*
X1112520D01*
Y502920D02*
Y513080D01*
X1122680D01*
Y502920D01*
X1112520D01*
Y528320D02*
Y538480D01*
X1122680D01*
Y528320D01*
X1112520D01*
Y553720D02*
Y563880D01*
X1122680D01*
Y553720D01*
X1112520D01*
Y579120D02*
Y589280D01*
X1122680D01*
Y579120D01*
X1112520D01*
Y604520D02*
Y614680D01*
X1122680D01*
Y604520D01*
X1112520D01*
Y629920D02*
Y640080D01*
X1122680D01*
Y629920D01*
X1112520D01*
X756920Y1036320D02*
Y1046480D01*
X767080D01*
Y1036320D01*
X756920D01*
X706120D02*
Y1046480D01*
X716280D01*
Y1036320D01*
X706120D01*
Y985520D02*
Y995680D01*
X716280D01*
Y985520D01*
X706120D01*
X756920D02*
Y995680D01*
X767080D01*
Y985520D01*
X756920D01*
X963168Y489458D02*
X965708Y494538D01*
X963168Y499618D01*
X968248Y497078D01*
X973328Y499618D01*
X970788Y494538D01*
X973328Y489458D01*
X968248Y491998D01*
X963168Y489458D01*
X999744Y845820D02*
X1002284Y850900D01*
X999744Y855980D01*
X1004824Y853440D01*
X1009904Y855980D01*
X1007364Y850900D01*
X1009904Y845820D01*
X1004824Y848360D01*
X999744Y845820D01*
X1223264Y899414D02*
X1225804Y904494D01*
X1223264Y909574D01*
X1228344Y907034D01*
X1233424Y909574D01*
X1230884Y904494D01*
X1233424Y899414D01*
X1228344Y901954D01*
X1223264Y899414D01*
X973328Y504190D02*
X975868Y509270D01*
X973328Y514350D01*
X978408Y511810D01*
X983488Y514350D01*
X980948Y509270D01*
X983488Y504190D01*
X978408Y506730D01*
X973328Y504190D01*
D65*
X1021130Y1041400D02*
G03*
X1021130Y1041400I-5080J0D01*
G01*
X1046480D02*
G03*
X1046480Y1041400I-5080J0D01*
G01*
X1071830D02*
G03*
X1071830Y1041400I-5080J0D01*
G01*
X844080Y1066800D02*
G03*
X844080Y1066800I-5080J0D01*
G01*
X944080D02*
G03*
X944080Y1066800I-5080J0D01*
G01*
X1097280Y1243800D02*
G03*
X1097280Y1243800I-5080J0D01*
G01*
Y1143800D02*
G03*
X1097280Y1143800I-5080J0D01*
G01*
X741680Y1168450D02*
G03*
X741680Y1168450I-5080J0D01*
G01*
Y1193800D02*
G03*
X741680Y1193800I-5080J0D01*
G01*
Y1219150D02*
G03*
X741680Y1219150I-5080J0D01*
G01*
D66*
X842048Y1066800D02*
G03*
X842048Y1066800I-3048J0D01*
G01*
X942048D02*
G03*
X942048Y1066800I-3048J0D01*
G01*
X1095248Y1243800D02*
G03*
X1095248Y1243800I-3048J0D01*
G01*
Y1143800D02*
G03*
X1095248Y1143800I-3048J0D01*
G01*
M02*
