G04*
G04 #@! TF.GenerationSoftware,Altium Limited,Altium Designer,23.3.1 (30)*
G04*
G04 Layer_Color=16711935*
%FSLAX44Y44*%
%MOMM*%
G71*
G04*
G04 #@! TF.SameCoordinates,D36B0BC1-D60A-48D3-9530-44C1F81AE03C*
G04*
G04*
G04 #@! TF.FilePolarity,Positive*
G04*
G01*
G75*
%ADD10C,0.2000*%
G36*
X1030089Y1201079D02*
X1029302D01*
Y1201985D01*
X1030089D01*
Y1201079D01*
D02*
G37*
G36*
X1020904Y1202092D02*
X1020985Y1202085D01*
X1021079Y1202073D01*
X1021185Y1202054D01*
X1021304Y1202035D01*
X1021422Y1202010D01*
X1021554Y1201979D01*
X1021691Y1201935D01*
X1021822Y1201892D01*
X1021960Y1201835D01*
X1022097Y1201767D01*
X1022228Y1201692D01*
X1022353Y1201604D01*
X1022360Y1201598D01*
X1022385Y1201579D01*
X1022416Y1201554D01*
X1022460Y1201517D01*
X1022516Y1201467D01*
X1022572Y1201404D01*
X1022641Y1201329D01*
X1022716Y1201248D01*
X1022791Y1201154D01*
X1022866Y1201054D01*
X1022941Y1200942D01*
X1023016Y1200817D01*
X1023091Y1200686D01*
X1023159Y1200542D01*
X1023216Y1200392D01*
X1023272Y1200229D01*
X1022435Y1200036D01*
Y1200042D01*
X1022422Y1200067D01*
X1022410Y1200105D01*
X1022391Y1200148D01*
X1022372Y1200204D01*
X1022341Y1200273D01*
X1022310Y1200342D01*
X1022272Y1200423D01*
X1022178Y1200586D01*
X1022066Y1200754D01*
X1021935Y1200911D01*
X1021860Y1200985D01*
X1021785Y1201048D01*
X1021778Y1201054D01*
X1021766Y1201060D01*
X1021741Y1201079D01*
X1021710Y1201098D01*
X1021666Y1201123D01*
X1021616Y1201148D01*
X1021560Y1201179D01*
X1021491Y1201210D01*
X1021422Y1201242D01*
X1021341Y1201273D01*
X1021254Y1201298D01*
X1021160Y1201323D01*
X1020954Y1201360D01*
X1020841Y1201367D01*
X1020723Y1201373D01*
X1020654D01*
X1020598Y1201367D01*
X1020535Y1201360D01*
X1020460Y1201354D01*
X1020379Y1201342D01*
X1020291Y1201329D01*
X1020091Y1201285D01*
X1019992Y1201261D01*
X1019885Y1201223D01*
X1019785Y1201179D01*
X1019679Y1201135D01*
X1019579Y1201079D01*
X1019485Y1201017D01*
X1019479Y1201011D01*
X1019467Y1200998D01*
X1019442Y1200979D01*
X1019404Y1200954D01*
X1019367Y1200917D01*
X1019317Y1200873D01*
X1019267Y1200823D01*
X1019217Y1200767D01*
X1019154Y1200698D01*
X1019098Y1200629D01*
X1019042Y1200548D01*
X1018986Y1200461D01*
X1018929Y1200373D01*
X1018879Y1200273D01*
X1018836Y1200173D01*
X1018792Y1200061D01*
Y1200054D01*
X1018785Y1200036D01*
X1018773Y1200005D01*
X1018761Y1199961D01*
X1018748Y1199905D01*
X1018729Y1199842D01*
X1018710Y1199767D01*
X1018692Y1199686D01*
X1018673Y1199598D01*
X1018654Y1199498D01*
X1018623Y1199292D01*
X1018598Y1199067D01*
X1018592Y1198836D01*
Y1198830D01*
Y1198799D01*
Y1198755D01*
X1018598Y1198699D01*
Y1198630D01*
X1018604Y1198542D01*
X1018611Y1198455D01*
X1018623Y1198349D01*
X1018636Y1198242D01*
X1018648Y1198130D01*
X1018692Y1197886D01*
X1018748Y1197643D01*
X1018829Y1197405D01*
Y1197399D01*
X1018842Y1197380D01*
X1018854Y1197349D01*
X1018873Y1197305D01*
X1018898Y1197255D01*
X1018929Y1197199D01*
X1019010Y1197068D01*
X1019117Y1196918D01*
X1019242Y1196768D01*
X1019392Y1196624D01*
X1019479Y1196562D01*
X1019567Y1196499D01*
X1019573Y1196493D01*
X1019592Y1196487D01*
X1019617Y1196474D01*
X1019654Y1196455D01*
X1019698Y1196430D01*
X1019754Y1196405D01*
X1019817Y1196380D01*
X1019892Y1196349D01*
X1019967Y1196324D01*
X1020054Y1196293D01*
X1020235Y1196249D01*
X1020441Y1196212D01*
X1020548Y1196206D01*
X1020654Y1196199D01*
X1020723D01*
X1020772Y1196206D01*
X1020835Y1196212D01*
X1020904Y1196218D01*
X1020985Y1196230D01*
X1021072Y1196249D01*
X1021260Y1196299D01*
X1021360Y1196330D01*
X1021466Y1196368D01*
X1021566Y1196418D01*
X1021666Y1196474D01*
X1021766Y1196537D01*
X1021860Y1196605D01*
X1021866Y1196612D01*
X1021879Y1196624D01*
X1021910Y1196649D01*
X1021941Y1196680D01*
X1021978Y1196724D01*
X1022028Y1196780D01*
X1022078Y1196843D01*
X1022128Y1196912D01*
X1022185Y1196993D01*
X1022241Y1197086D01*
X1022297Y1197187D01*
X1022353Y1197293D01*
X1022403Y1197411D01*
X1022447Y1197543D01*
X1022491Y1197680D01*
X1022528Y1197824D01*
X1023378Y1197611D01*
Y1197599D01*
X1023366Y1197568D01*
X1023347Y1197511D01*
X1023328Y1197443D01*
X1023297Y1197355D01*
X1023259Y1197255D01*
X1023209Y1197143D01*
X1023159Y1197024D01*
X1023097Y1196893D01*
X1023028Y1196762D01*
X1022947Y1196630D01*
X1022859Y1196499D01*
X1022759Y1196368D01*
X1022660Y1196243D01*
X1022541Y1196124D01*
X1022416Y1196018D01*
X1022410Y1196012D01*
X1022385Y1195993D01*
X1022347Y1195968D01*
X1022291Y1195931D01*
X1022222Y1195893D01*
X1022141Y1195849D01*
X1022047Y1195799D01*
X1021947Y1195749D01*
X1021829Y1195693D01*
X1021697Y1195649D01*
X1021560Y1195599D01*
X1021410Y1195562D01*
X1021247Y1195524D01*
X1021085Y1195499D01*
X1020904Y1195481D01*
X1020723Y1195474D01*
X1020622D01*
X1020548Y1195481D01*
X1020460Y1195487D01*
X1020360Y1195499D01*
X1020248Y1195512D01*
X1020123Y1195524D01*
X1019992Y1195549D01*
X1019854Y1195574D01*
X1019716Y1195612D01*
X1019573Y1195649D01*
X1019435Y1195699D01*
X1019292Y1195756D01*
X1019160Y1195818D01*
X1019035Y1195893D01*
X1019029Y1195899D01*
X1019010Y1195912D01*
X1018973Y1195937D01*
X1018929Y1195974D01*
X1018873Y1196012D01*
X1018817Y1196068D01*
X1018748Y1196131D01*
X1018673Y1196206D01*
X1018592Y1196287D01*
X1018511Y1196374D01*
X1018429Y1196474D01*
X1018348Y1196587D01*
X1018273Y1196705D01*
X1018192Y1196830D01*
X1018123Y1196968D01*
X1018055Y1197112D01*
X1018048Y1197124D01*
X1018042Y1197149D01*
X1018023Y1197193D01*
X1018005Y1197249D01*
X1017980Y1197324D01*
X1017948Y1197411D01*
X1017917Y1197511D01*
X1017886Y1197624D01*
X1017855Y1197749D01*
X1017823Y1197880D01*
X1017798Y1198024D01*
X1017767Y1198174D01*
X1017748Y1198330D01*
X1017729Y1198492D01*
X1017723Y1198661D01*
X1017717Y1198830D01*
Y1198842D01*
Y1198874D01*
Y1198930D01*
X1017723Y1198998D01*
X1017729Y1199086D01*
X1017736Y1199186D01*
X1017748Y1199298D01*
X1017767Y1199423D01*
X1017786Y1199555D01*
X1017811Y1199692D01*
X1017842Y1199842D01*
X1017879Y1199986D01*
X1017923Y1200136D01*
X1017973Y1200286D01*
X1018029Y1200429D01*
X1018098Y1200573D01*
X1018104Y1200579D01*
X1018117Y1200604D01*
X1018136Y1200648D01*
X1018167Y1200698D01*
X1018211Y1200761D01*
X1018254Y1200829D01*
X1018311Y1200911D01*
X1018379Y1200998D01*
X1018448Y1201086D01*
X1018529Y1201179D01*
X1018623Y1201273D01*
X1018717Y1201367D01*
X1018823Y1201460D01*
X1018935Y1201548D01*
X1019054Y1201635D01*
X1019185Y1201710D01*
X1019192Y1201717D01*
X1019217Y1201729D01*
X1019254Y1201748D01*
X1019310Y1201773D01*
X1019373Y1201798D01*
X1019454Y1201835D01*
X1019542Y1201867D01*
X1019648Y1201904D01*
X1019754Y1201942D01*
X1019873Y1201973D01*
X1020004Y1202010D01*
X1020141Y1202035D01*
X1020285Y1202060D01*
X1020429Y1202079D01*
X1020585Y1202092D01*
X1020741Y1202098D01*
X1020835D01*
X1020904Y1202092D01*
D02*
G37*
G36*
X1033569Y1200323D02*
X1033613D01*
X1033719Y1200311D01*
X1033838Y1200292D01*
X1033963Y1200261D01*
X1034100Y1200223D01*
X1034232Y1200173D01*
X1034238D01*
X1034244Y1200167D01*
X1034263Y1200161D01*
X1034288Y1200148D01*
X1034350Y1200111D01*
X1034432Y1200067D01*
X1034513Y1200011D01*
X1034600Y1199942D01*
X1034681Y1199867D01*
X1034756Y1199780D01*
X1034763Y1199767D01*
X1034788Y1199736D01*
X1034819Y1199686D01*
X1034856Y1199617D01*
X1034894Y1199530D01*
X1034938Y1199430D01*
X1034975Y1199324D01*
X1035006Y1199199D01*
Y1199186D01*
X1035013Y1199155D01*
X1035019Y1199099D01*
X1035025Y1199061D01*
X1035031Y1199024D01*
Y1198973D01*
X1035038Y1198917D01*
Y1198855D01*
X1035044Y1198780D01*
Y1198705D01*
X1035050Y1198624D01*
Y1198530D01*
Y1198430D01*
Y1195581D01*
X1034263D01*
Y1198405D01*
Y1198411D01*
Y1198424D01*
Y1198449D01*
Y1198486D01*
Y1198524D01*
X1034257Y1198567D01*
X1034250Y1198674D01*
X1034238Y1198792D01*
X1034225Y1198911D01*
X1034200Y1199024D01*
X1034169Y1199124D01*
X1034163Y1199136D01*
X1034150Y1199161D01*
X1034125Y1199205D01*
X1034094Y1199261D01*
X1034050Y1199324D01*
X1033994Y1199386D01*
X1033925Y1199448D01*
X1033844Y1199505D01*
X1033832Y1199511D01*
X1033800Y1199530D01*
X1033757Y1199548D01*
X1033688Y1199580D01*
X1033607Y1199605D01*
X1033513Y1199623D01*
X1033407Y1199642D01*
X1033294Y1199648D01*
X1033244D01*
X1033213Y1199642D01*
X1033169Y1199636D01*
X1033119Y1199630D01*
X1033001Y1199611D01*
X1032863Y1199567D01*
X1032719Y1199511D01*
X1032645Y1199473D01*
X1032576Y1199430D01*
X1032501Y1199380D01*
X1032432Y1199324D01*
X1032426Y1199317D01*
X1032420Y1199311D01*
X1032401Y1199286D01*
X1032376Y1199261D01*
X1032351Y1199223D01*
X1032320Y1199174D01*
X1032282Y1199117D01*
X1032251Y1199055D01*
X1032220Y1198980D01*
X1032182Y1198892D01*
X1032151Y1198792D01*
X1032126Y1198680D01*
X1032101Y1198561D01*
X1032088Y1198424D01*
X1032076Y1198280D01*
X1032070Y1198118D01*
Y1195581D01*
X1031282D01*
Y1200223D01*
X1031988D01*
Y1199561D01*
X1031995Y1199567D01*
X1032013Y1199592D01*
X1032045Y1199630D01*
X1032082Y1199680D01*
X1032138Y1199742D01*
X1032201Y1199805D01*
X1032276Y1199873D01*
X1032363Y1199948D01*
X1032463Y1200017D01*
X1032570Y1200086D01*
X1032694Y1200154D01*
X1032826Y1200211D01*
X1032969Y1200261D01*
X1033119Y1200298D01*
X1033288Y1200323D01*
X1033463Y1200330D01*
X1033532D01*
X1033569Y1200323D01*
D02*
G37*
G36*
X1030089Y1195581D02*
X1029302D01*
Y1200223D01*
X1030089D01*
Y1195581D01*
D02*
G37*
G36*
X1013962Y1201979D02*
X1014043D01*
X1014124Y1201973D01*
X1014312Y1201960D01*
X1014499Y1201948D01*
X1014680Y1201923D01*
X1014768Y1201910D01*
X1014843Y1201892D01*
X1014849D01*
X1014868Y1201885D01*
X1014899Y1201879D01*
X1014937Y1201867D01*
X1014986Y1201854D01*
X1015036Y1201835D01*
X1015099Y1201810D01*
X1015168Y1201785D01*
X1015318Y1201723D01*
X1015474Y1201642D01*
X1015636Y1201548D01*
X1015786Y1201429D01*
X1015792Y1201423D01*
X1015811Y1201410D01*
X1015836Y1201385D01*
X1015867Y1201354D01*
X1015911Y1201310D01*
X1015961Y1201261D01*
X1016011Y1201198D01*
X1016074Y1201135D01*
X1016130Y1201060D01*
X1016192Y1200973D01*
X1016255Y1200886D01*
X1016317Y1200792D01*
X1016380Y1200686D01*
X1016436Y1200573D01*
X1016542Y1200336D01*
Y1200330D01*
X1016555Y1200304D01*
X1016567Y1200267D01*
X1016580Y1200217D01*
X1016605Y1200154D01*
X1016624Y1200079D01*
X1016649Y1199992D01*
X1016674Y1199898D01*
X1016692Y1199792D01*
X1016717Y1199673D01*
X1016742Y1199548D01*
X1016761Y1199417D01*
X1016774Y1199274D01*
X1016786Y1199130D01*
X1016798Y1198817D01*
Y1198811D01*
Y1198786D01*
Y1198749D01*
Y1198692D01*
X1016792Y1198630D01*
Y1198555D01*
X1016786Y1198474D01*
X1016780Y1198380D01*
X1016767Y1198280D01*
X1016755Y1198180D01*
X1016723Y1197961D01*
X1016680Y1197736D01*
X1016624Y1197518D01*
Y1197511D01*
X1016617Y1197493D01*
X1016605Y1197461D01*
X1016592Y1197424D01*
X1016574Y1197374D01*
X1016555Y1197318D01*
X1016530Y1197255D01*
X1016505Y1197193D01*
X1016442Y1197043D01*
X1016367Y1196887D01*
X1016280Y1196730D01*
X1016186Y1196587D01*
Y1196580D01*
X1016174Y1196568D01*
X1016161Y1196549D01*
X1016142Y1196524D01*
X1016086Y1196462D01*
X1016018Y1196374D01*
X1015930Y1196281D01*
X1015830Y1196187D01*
X1015724Y1196093D01*
X1015605Y1196006D01*
X1015599D01*
X1015593Y1195999D01*
X1015574Y1195987D01*
X1015549Y1195968D01*
X1015518Y1195956D01*
X1015480Y1195931D01*
X1015393Y1195887D01*
X1015280Y1195837D01*
X1015149Y1195781D01*
X1014999Y1195731D01*
X1014837Y1195687D01*
X1014830D01*
X1014818Y1195681D01*
X1014793Y1195674D01*
X1014755Y1195668D01*
X1014718Y1195662D01*
X1014668Y1195656D01*
X1014605Y1195643D01*
X1014543Y1195637D01*
X1014468Y1195624D01*
X1014393Y1195612D01*
X1014218Y1195599D01*
X1014024Y1195587D01*
X1013812Y1195581D01*
X1011500D01*
Y1201985D01*
X1013893D01*
X1013962Y1201979D01*
D02*
G37*
G36*
X1028802Y1193800D02*
X1023597D01*
Y1194369D01*
X1028802D01*
Y1193800D01*
D02*
G37*
G36*
X889000Y1060396D02*
X886020D01*
X885951Y1060402D01*
X885870D01*
X885776Y1060408D01*
X885682Y1060414D01*
X885470Y1060439D01*
X885251Y1060470D01*
X885045Y1060514D01*
X884951Y1060539D01*
X884864Y1060570D01*
X884857D01*
X884845Y1060577D01*
X884820Y1060589D01*
X884789Y1060602D01*
X884751Y1060627D01*
X884707Y1060652D01*
X884607Y1060714D01*
X884495Y1060795D01*
X884376Y1060902D01*
X884258Y1061033D01*
X884151Y1061183D01*
X884145Y1061189D01*
X884139Y1061201D01*
X884126Y1061227D01*
X884108Y1061258D01*
X884089Y1061301D01*
X884064Y1061351D01*
X884039Y1061402D01*
X884014Y1061464D01*
X883970Y1061608D01*
X883926Y1061770D01*
X883895Y1061951D01*
X883883Y1062045D01*
Y1062145D01*
Y1062151D01*
Y1062176D01*
Y1062214D01*
X883889Y1062258D01*
X883895Y1062320D01*
X883908Y1062383D01*
X883920Y1062464D01*
X883939Y1062545D01*
X883964Y1062632D01*
X883989Y1062726D01*
X884026Y1062820D01*
X884070Y1062920D01*
X884120Y1063014D01*
X884183Y1063113D01*
X884245Y1063207D01*
X884326Y1063295D01*
X884333Y1063301D01*
X884345Y1063314D01*
X884370Y1063338D01*
X884408Y1063370D01*
X884457Y1063407D01*
X884514Y1063451D01*
X884583Y1063495D01*
X884664Y1063545D01*
X884751Y1063595D01*
X884851Y1063645D01*
X884964Y1063695D01*
X885089Y1063745D01*
X885220Y1063788D01*
X885363Y1063826D01*
X885520Y1063863D01*
X885688Y1063888D01*
X885682D01*
X885676Y1063895D01*
X885657Y1063907D01*
X885632Y1063913D01*
X885570Y1063951D01*
X885495Y1063988D01*
X885414Y1064038D01*
X885332Y1064088D01*
X885251Y1064151D01*
X885176Y1064207D01*
X885170Y1064213D01*
X885157Y1064220D01*
X885139Y1064245D01*
X885114Y1064269D01*
X885082Y1064301D01*
X885045Y1064344D01*
X885001Y1064388D01*
X884951Y1064444D01*
X884845Y1064569D01*
X884726Y1064713D01*
X884601Y1064882D01*
X884476Y1065063D01*
X883370Y1066800D01*
X884426D01*
X885276Y1065469D01*
X885282Y1065463D01*
X885295Y1065444D01*
X885313Y1065413D01*
X885339Y1065375D01*
X885370Y1065325D01*
X885407Y1065269D01*
X885489Y1065144D01*
X885588Y1065001D01*
X885688Y1064857D01*
X885795Y1064713D01*
X885838Y1064651D01*
X885888Y1064588D01*
Y1064582D01*
X885901Y1064576D01*
X885926Y1064538D01*
X885976Y1064482D01*
X886032Y1064419D01*
X886101Y1064351D01*
X886170Y1064282D01*
X886245Y1064213D01*
X886320Y1064163D01*
X886326Y1064157D01*
X886351Y1064145D01*
X886388Y1064119D01*
X886438Y1064094D01*
X886495Y1064063D01*
X886557Y1064038D01*
X886626Y1064007D01*
X886701Y1063988D01*
X886707D01*
X886726Y1063982D01*
X886763Y1063976D01*
X886813Y1063970D01*
X886876D01*
X886957Y1063963D01*
X887057Y1063957D01*
X888150D01*
Y1066800D01*
X889000D01*
Y1060396D01*
D02*
G37*
G36*
X880702Y1061795D02*
X880708D01*
X880715Y1061808D01*
X880733Y1061820D01*
X880752Y1061839D01*
X880815Y1061895D01*
X880902Y1061964D01*
X881008Y1062045D01*
X881140Y1062139D01*
X881290Y1062239D01*
X881452Y1062339D01*
X881458D01*
X881471Y1062351D01*
X881496Y1062364D01*
X881527Y1062383D01*
X881571Y1062408D01*
X881615Y1062432D01*
X881727Y1062489D01*
X881852Y1062551D01*
X881989Y1062620D01*
X882133Y1062682D01*
X882271Y1062739D01*
Y1061983D01*
X882264Y1061976D01*
X882239Y1061970D01*
X882208Y1061951D01*
X882158Y1061926D01*
X882102Y1061895D01*
X882039Y1061858D01*
X881964Y1061820D01*
X881883Y1061770D01*
X881702Y1061664D01*
X881508Y1061533D01*
X881314Y1061389D01*
X881121Y1061233D01*
X881115Y1061227D01*
X881102Y1061214D01*
X881071Y1061189D01*
X881040Y1061158D01*
X881002Y1061114D01*
X880952Y1061070D01*
X880902Y1061014D01*
X880846Y1060958D01*
X880733Y1060827D01*
X880621Y1060683D01*
X880515Y1060527D01*
X880465Y1060452D01*
X880427Y1060370D01*
X879915D01*
Y1066800D01*
X880702D01*
Y1061795D01*
D02*
G37*
G36*
X1092200Y1199823D02*
X1092194D01*
X1092188D01*
X1092150D01*
X1092100D01*
X1092025Y1199830D01*
X1091944Y1199842D01*
X1091850Y1199855D01*
X1091756Y1199880D01*
X1091656Y1199911D01*
X1091650D01*
X1091638Y1199917D01*
X1091613Y1199930D01*
X1091581Y1199942D01*
X1091544Y1199961D01*
X1091500Y1199979D01*
X1091388Y1200036D01*
X1091257Y1200111D01*
X1091113Y1200198D01*
X1090963Y1200304D01*
X1090807Y1200429D01*
X1090800Y1200436D01*
X1090788Y1200448D01*
X1090763Y1200467D01*
X1090732Y1200498D01*
X1090694Y1200536D01*
X1090644Y1200579D01*
X1090588Y1200629D01*
X1090526Y1200692D01*
X1090463Y1200761D01*
X1090388Y1200836D01*
X1090307Y1200923D01*
X1090219Y1201011D01*
X1090132Y1201111D01*
X1090038Y1201217D01*
X1089938Y1201335D01*
X1089838Y1201454D01*
X1089826Y1201467D01*
X1089801Y1201498D01*
X1089757Y1201554D01*
X1089695Y1201623D01*
X1089626Y1201710D01*
X1089538Y1201804D01*
X1089445Y1201910D01*
X1089345Y1202023D01*
X1089126Y1202260D01*
X1088901Y1202491D01*
X1088788Y1202598D01*
X1088676Y1202698D01*
X1088576Y1202791D01*
X1088476Y1202866D01*
X1088470Y1202872D01*
X1088451Y1202885D01*
X1088426Y1202904D01*
X1088389Y1202923D01*
X1088345Y1202954D01*
X1088295Y1202985D01*
X1088232Y1203016D01*
X1088170Y1203054D01*
X1088026Y1203122D01*
X1087870Y1203185D01*
X1087783Y1203204D01*
X1087701Y1203223D01*
X1087614Y1203235D01*
X1087533Y1203241D01*
X1087526D01*
X1087514D01*
X1087489D01*
X1087451Y1203235D01*
X1087414Y1203229D01*
X1087370Y1203223D01*
X1087258Y1203197D01*
X1087133Y1203160D01*
X1087001Y1203098D01*
X1086939Y1203060D01*
X1086870Y1203016D01*
X1086808Y1202966D01*
X1086745Y1202904D01*
X1086739Y1202897D01*
X1086733Y1202891D01*
X1086714Y1202866D01*
X1086695Y1202841D01*
X1086670Y1202810D01*
X1086645Y1202766D01*
X1086614Y1202723D01*
X1086583Y1202666D01*
X1086552Y1202610D01*
X1086520Y1202541D01*
X1086470Y1202391D01*
X1086433Y1202223D01*
X1086427Y1202129D01*
X1086420Y1202029D01*
Y1201973D01*
X1086427Y1201935D01*
X1086433Y1201885D01*
X1086439Y1201829D01*
X1086451Y1201767D01*
X1086464Y1201704D01*
X1086501Y1201554D01*
X1086564Y1201404D01*
X1086601Y1201329D01*
X1086652Y1201254D01*
X1086702Y1201186D01*
X1086764Y1201117D01*
X1086770Y1201111D01*
X1086777Y1201104D01*
X1086802Y1201086D01*
X1086826Y1201067D01*
X1086858Y1201042D01*
X1086901Y1201011D01*
X1086951Y1200979D01*
X1087008Y1200948D01*
X1087070Y1200917D01*
X1087139Y1200886D01*
X1087220Y1200861D01*
X1087301Y1200829D01*
X1087389Y1200811D01*
X1087489Y1200792D01*
X1087589Y1200786D01*
X1087701Y1200779D01*
X1087620Y1199973D01*
X1087607D01*
X1087582Y1199979D01*
X1087533Y1199986D01*
X1087470Y1199992D01*
X1087395Y1200011D01*
X1087308Y1200030D01*
X1087214Y1200054D01*
X1087108Y1200079D01*
X1087001Y1200117D01*
X1086889Y1200161D01*
X1086777Y1200211D01*
X1086658Y1200267D01*
X1086545Y1200336D01*
X1086439Y1200411D01*
X1086339Y1200498D01*
X1086245Y1200592D01*
X1086239Y1200598D01*
X1086227Y1200617D01*
X1086202Y1200648D01*
X1086170Y1200692D01*
X1086133Y1200748D01*
X1086095Y1200811D01*
X1086052Y1200892D01*
X1086008Y1200979D01*
X1085964Y1201079D01*
X1085920Y1201186D01*
X1085883Y1201304D01*
X1085845Y1201435D01*
X1085814Y1201573D01*
X1085789Y1201723D01*
X1085777Y1201879D01*
X1085770Y1202048D01*
Y1202092D01*
X1085777Y1202135D01*
Y1202204D01*
X1085783Y1202279D01*
X1085796Y1202366D01*
X1085814Y1202466D01*
X1085833Y1202579D01*
X1085864Y1202691D01*
X1085895Y1202810D01*
X1085939Y1202935D01*
X1085989Y1203054D01*
X1086045Y1203179D01*
X1086114Y1203291D01*
X1086195Y1203404D01*
X1086283Y1203510D01*
X1086289Y1203516D01*
X1086308Y1203535D01*
X1086333Y1203560D01*
X1086377Y1203591D01*
X1086427Y1203635D01*
X1086483Y1203679D01*
X1086552Y1203729D01*
X1086633Y1203779D01*
X1086720Y1203829D01*
X1086820Y1203878D01*
X1086920Y1203922D01*
X1087033Y1203966D01*
X1087151Y1203997D01*
X1087283Y1204022D01*
X1087414Y1204041D01*
X1087551Y1204047D01*
X1087558D01*
X1087570D01*
X1087589D01*
X1087614D01*
X1087651Y1204041D01*
X1087689D01*
X1087789Y1204028D01*
X1087901Y1204010D01*
X1088032Y1203979D01*
X1088170Y1203941D01*
X1088307Y1203885D01*
X1088314D01*
X1088326Y1203878D01*
X1088345Y1203866D01*
X1088370Y1203854D01*
X1088407Y1203835D01*
X1088445Y1203816D01*
X1088545Y1203760D01*
X1088657Y1203691D01*
X1088795Y1203597D01*
X1088938Y1203491D01*
X1089088Y1203360D01*
X1089095Y1203354D01*
X1089107Y1203341D01*
X1089132Y1203322D01*
X1089163Y1203291D01*
X1089207Y1203248D01*
X1089257Y1203204D01*
X1089313Y1203141D01*
X1089382Y1203073D01*
X1089457Y1202998D01*
X1089545Y1202904D01*
X1089638Y1202810D01*
X1089738Y1202698D01*
X1089844Y1202579D01*
X1089963Y1202448D01*
X1090082Y1202304D01*
X1090213Y1202154D01*
X1090219Y1202148D01*
X1090238Y1202123D01*
X1090269Y1202085D01*
X1090307Y1202041D01*
X1090357Y1201985D01*
X1090413Y1201923D01*
X1090538Y1201773D01*
X1090669Y1201623D01*
X1090800Y1201473D01*
X1090863Y1201404D01*
X1090925Y1201342D01*
X1090975Y1201285D01*
X1091019Y1201242D01*
X1091025Y1201236D01*
X1091057Y1201210D01*
X1091100Y1201173D01*
X1091150Y1201123D01*
X1091219Y1201073D01*
X1091288Y1201017D01*
X1091363Y1200960D01*
X1091444Y1200911D01*
Y1204053D01*
X1092200D01*
Y1199823D01*
D02*
G37*
G36*
Y1198374D02*
X1090869Y1197524D01*
X1090863Y1197518D01*
X1090844Y1197505D01*
X1090813Y1197486D01*
X1090775Y1197461D01*
X1090725Y1197430D01*
X1090669Y1197393D01*
X1090544Y1197311D01*
X1090400Y1197212D01*
X1090257Y1197112D01*
X1090113Y1197005D01*
X1090051Y1196962D01*
X1089988Y1196912D01*
X1089982D01*
X1089976Y1196899D01*
X1089938Y1196874D01*
X1089882Y1196824D01*
X1089819Y1196768D01*
X1089751Y1196699D01*
X1089682Y1196630D01*
X1089613Y1196555D01*
X1089563Y1196480D01*
X1089557Y1196474D01*
X1089545Y1196449D01*
X1089520Y1196412D01*
X1089494Y1196362D01*
X1089463Y1196305D01*
X1089438Y1196243D01*
X1089407Y1196174D01*
X1089388Y1196099D01*
Y1196093D01*
X1089382Y1196074D01*
X1089376Y1196037D01*
X1089370Y1195987D01*
Y1195924D01*
X1089363Y1195843D01*
X1089357Y1195743D01*
Y1194650D01*
X1092200D01*
Y1193800D01*
X1085796D01*
Y1196780D01*
X1085802Y1196849D01*
Y1196930D01*
X1085808Y1197024D01*
X1085814Y1197118D01*
X1085839Y1197330D01*
X1085870Y1197549D01*
X1085914Y1197755D01*
X1085939Y1197849D01*
X1085970Y1197936D01*
Y1197943D01*
X1085977Y1197955D01*
X1085989Y1197980D01*
X1086002Y1198011D01*
X1086027Y1198049D01*
X1086052Y1198092D01*
X1086114Y1198193D01*
X1086195Y1198305D01*
X1086302Y1198424D01*
X1086433Y1198542D01*
X1086583Y1198649D01*
X1086589Y1198655D01*
X1086601Y1198661D01*
X1086627Y1198674D01*
X1086658Y1198692D01*
X1086702Y1198711D01*
X1086751Y1198736D01*
X1086802Y1198761D01*
X1086864Y1198786D01*
X1087008Y1198830D01*
X1087170Y1198874D01*
X1087351Y1198905D01*
X1087445Y1198917D01*
X1087545D01*
X1087551D01*
X1087576D01*
X1087614D01*
X1087657Y1198911D01*
X1087720Y1198905D01*
X1087783Y1198892D01*
X1087864Y1198880D01*
X1087945Y1198861D01*
X1088032Y1198836D01*
X1088126Y1198811D01*
X1088220Y1198774D01*
X1088320Y1198730D01*
X1088413Y1198680D01*
X1088513Y1198617D01*
X1088607Y1198555D01*
X1088695Y1198474D01*
X1088701Y1198467D01*
X1088714Y1198455D01*
X1088738Y1198430D01*
X1088770Y1198392D01*
X1088807Y1198343D01*
X1088851Y1198286D01*
X1088895Y1198217D01*
X1088945Y1198136D01*
X1088995Y1198049D01*
X1089045Y1197949D01*
X1089095Y1197836D01*
X1089145Y1197711D01*
X1089188Y1197580D01*
X1089226Y1197436D01*
X1089263Y1197280D01*
X1089288Y1197112D01*
Y1197118D01*
X1089295Y1197124D01*
X1089307Y1197143D01*
X1089313Y1197168D01*
X1089351Y1197230D01*
X1089388Y1197305D01*
X1089438Y1197386D01*
X1089488Y1197468D01*
X1089551Y1197549D01*
X1089607Y1197624D01*
X1089613Y1197630D01*
X1089620Y1197643D01*
X1089644Y1197661D01*
X1089669Y1197686D01*
X1089701Y1197718D01*
X1089744Y1197755D01*
X1089788Y1197799D01*
X1089844Y1197849D01*
X1089969Y1197955D01*
X1090113Y1198074D01*
X1090282Y1198199D01*
X1090463Y1198324D01*
X1092200Y1199430D01*
Y1198374D01*
D02*
G37*
%LPC*%
G36*
X1013830Y1201229D02*
X1012350D01*
Y1196337D01*
X1013818D01*
X1013868Y1196343D01*
X1013931D01*
X1013999Y1196349D01*
X1014074D01*
X1014237Y1196362D01*
X1014399Y1196387D01*
X1014562Y1196412D01*
X1014637Y1196430D01*
X1014705Y1196449D01*
X1014712D01*
X1014724Y1196455D01*
X1014743Y1196462D01*
X1014768Y1196474D01*
X1014830Y1196499D01*
X1014911Y1196537D01*
X1015005Y1196587D01*
X1015099Y1196643D01*
X1015193Y1196712D01*
X1015280Y1196787D01*
X1015286Y1196793D01*
X1015293Y1196799D01*
X1015311Y1196818D01*
X1015330Y1196843D01*
X1015355Y1196874D01*
X1015386Y1196905D01*
X1015455Y1196999D01*
X1015530Y1197118D01*
X1015611Y1197255D01*
X1015686Y1197411D01*
X1015755Y1197593D01*
Y1197599D01*
X1015761Y1197618D01*
X1015774Y1197643D01*
X1015780Y1197686D01*
X1015792Y1197736D01*
X1015811Y1197793D01*
X1015824Y1197861D01*
X1015843Y1197943D01*
X1015855Y1198024D01*
X1015867Y1198118D01*
X1015886Y1198224D01*
X1015899Y1198330D01*
X1015911Y1198449D01*
X1015918Y1198567D01*
X1015924Y1198830D01*
Y1198842D01*
Y1198874D01*
Y1198924D01*
X1015918Y1198992D01*
X1015911Y1199080D01*
X1015905Y1199174D01*
X1015899Y1199280D01*
X1015880Y1199398D01*
X1015867Y1199517D01*
X1015843Y1199642D01*
X1015786Y1199898D01*
X1015749Y1200023D01*
X1015705Y1200148D01*
X1015649Y1200261D01*
X1015593Y1200367D01*
X1015586Y1200373D01*
X1015580Y1200392D01*
X1015561Y1200417D01*
X1015536Y1200454D01*
X1015499Y1200498D01*
X1015461Y1200548D01*
X1015368Y1200661D01*
X1015249Y1200786D01*
X1015111Y1200904D01*
X1014955Y1201011D01*
X1014874Y1201060D01*
X1014787Y1201098D01*
X1014780D01*
X1014768Y1201104D01*
X1014749Y1201111D01*
X1014724Y1201117D01*
X1014687Y1201129D01*
X1014643Y1201142D01*
X1014587Y1201154D01*
X1014524Y1201167D01*
X1014449Y1201173D01*
X1014374Y1201186D01*
X1014280Y1201198D01*
X1014180Y1201210D01*
X1014074Y1201217D01*
X1013956Y1201223D01*
X1013830Y1201229D01*
D02*
G37*
G36*
X888150Y1063226D02*
X886238D01*
X886188Y1063220D01*
X886132D01*
X886070Y1063214D01*
X886001D01*
X885857Y1063195D01*
X885707Y1063176D01*
X885557Y1063145D01*
X885426Y1063107D01*
X885420D01*
X885414Y1063101D01*
X885370Y1063082D01*
X885313Y1063057D01*
X885245Y1063014D01*
X885164Y1062964D01*
X885082Y1062895D01*
X885001Y1062820D01*
X884932Y1062726D01*
Y1062720D01*
X884926Y1062714D01*
X884907Y1062676D01*
X884876Y1062626D01*
X884845Y1062551D01*
X884814Y1062464D01*
X884782Y1062370D01*
X884764Y1062258D01*
X884757Y1062145D01*
Y1062139D01*
Y1062126D01*
Y1062101D01*
X884764Y1062070D01*
X884770Y1062032D01*
X884776Y1061983D01*
X884801Y1061883D01*
X884839Y1061764D01*
X884895Y1061639D01*
X884932Y1061570D01*
X884976Y1061514D01*
X885032Y1061451D01*
X885089Y1061395D01*
X885095Y1061389D01*
X885101Y1061383D01*
X885126Y1061370D01*
X885151Y1061351D01*
X885189Y1061327D01*
X885232Y1061301D01*
X885282Y1061276D01*
X885345Y1061245D01*
X885414Y1061220D01*
X885489Y1061195D01*
X885570Y1061170D01*
X885663Y1061145D01*
X885770Y1061126D01*
X885876Y1061114D01*
X885995Y1061102D01*
X888150D01*
Y1063226D01*
D02*
G37*
G36*
X1087545Y1198043D02*
X1087539D01*
X1087526D01*
X1087501D01*
X1087470Y1198036D01*
X1087432Y1198030D01*
X1087383Y1198024D01*
X1087283Y1197999D01*
X1087164Y1197961D01*
X1087039Y1197905D01*
X1086970Y1197868D01*
X1086914Y1197824D01*
X1086851Y1197768D01*
X1086795Y1197711D01*
X1086789Y1197705D01*
X1086783Y1197699D01*
X1086770Y1197674D01*
X1086751Y1197649D01*
X1086727Y1197611D01*
X1086702Y1197568D01*
X1086676Y1197518D01*
X1086645Y1197455D01*
X1086620Y1197386D01*
X1086595Y1197311D01*
X1086570Y1197230D01*
X1086545Y1197137D01*
X1086526Y1197030D01*
X1086514Y1196924D01*
X1086501Y1196805D01*
Y1194650D01*
X1088626D01*
Y1196562D01*
X1088620Y1196612D01*
Y1196668D01*
X1088614Y1196730D01*
Y1196799D01*
X1088595Y1196943D01*
X1088576Y1197093D01*
X1088545Y1197243D01*
X1088507Y1197374D01*
Y1197380D01*
X1088501Y1197386D01*
X1088482Y1197430D01*
X1088457Y1197486D01*
X1088413Y1197555D01*
X1088364Y1197636D01*
X1088295Y1197718D01*
X1088220Y1197799D01*
X1088126Y1197868D01*
X1088120D01*
X1088114Y1197874D01*
X1088076Y1197893D01*
X1088026Y1197924D01*
X1087951Y1197955D01*
X1087864Y1197986D01*
X1087770Y1198018D01*
X1087657Y1198036D01*
X1087545Y1198043D01*
D02*
G37*
%LPD*%
D10*
X960000Y1119800D02*
Y1267800D01*
Y1119800D02*
X1063000D01*
Y1267800D01*
X960000D02*
X1063000D01*
X946250Y1053300D02*
Y1080300D01*
X831750D02*
X946250D01*
X831750Y1053300D02*
Y1080300D01*
Y1053300D02*
X946250D01*
X1078700Y1136550D02*
X1105700D01*
Y1251050D01*
X1078700D02*
X1105700D01*
X1078700Y1136550D02*
Y1251050D01*
M02*
