G04*
G04 #@! TF.GenerationSoftware,Altium Limited,Altium Designer,23.3.1 (30)*
G04*
G04 Layer_Color=65535*
%FSLAX44Y44*%
%MOMM*%
G71*
G04*
G04 #@! TF.SameCoordinates,D36B0BC1-D60A-48D3-9530-44C1F81AE03C*
G04*
G04*
G04 #@! TF.FilePolarity,Positive*
G04*
G01*
G75*
%ADD10C,0.2000*%
%ADD11C,0.1270*%
%ADD12C,0.2500*%
%ADD13C,0.3000*%
%ADD14C,0.1000*%
%ADD15C,0.2540*%
D10*
X820400Y939800D02*
G03*
X820400Y939800I-1000J0D01*
G01*
X1050800Y471800D02*
G03*
X1050800Y471800I-1000J0D01*
G01*
X699200Y466400D02*
G03*
X697200Y466400I-1000J0D01*
G01*
D02*
G03*
X699200Y466400I1000J0D01*
G01*
X1031250Y970250D02*
X1102350D01*
X1031250Y1010950D02*
X1102350D01*
Y970250D02*
Y1010950D01*
X1031250Y970250D02*
Y1010950D01*
X970000Y1178550D02*
Y1266800D01*
Y1120800D02*
Y1139050D01*
X1035750Y1120800D02*
X1062000D01*
X970000D02*
X996250D01*
X1062000D02*
Y1266800D01*
X970000D02*
X1062000D01*
X1094750Y1025900D02*
Y1072900D01*
X988050D02*
X1094750D01*
X988050Y1041400D02*
Y1072900D01*
X849250Y1066800D02*
X856500D01*
X921500D02*
X928750D01*
X921500Y1054300D02*
Y1079300D01*
X856500D02*
X921500D01*
X856500Y1054300D02*
Y1079300D01*
Y1054300D02*
X921500D01*
X1092200Y1226300D02*
Y1233550D01*
Y1154050D02*
Y1161300D01*
X1079700D02*
X1104700D01*
Y1226300D01*
X1079700D02*
X1104700D01*
X1079700Y1161300D02*
Y1226300D01*
X789300Y1077200D02*
Y1124200D01*
X683900D02*
X789300D01*
X683900Y1092200D02*
Y1124200D01*
X705100Y1247150D02*
X752100D01*
X705100Y1140450D02*
Y1247150D01*
Y1140450D02*
X736600D01*
X1103900Y914400D02*
Y928100D01*
X1207500D01*
X1103900Y672100D02*
X1207500D01*
X1103900Y635000D02*
Y648700D01*
X1207500D01*
X1103900Y392700D02*
X1207500D01*
X701050Y1021050D02*
X772150D01*
X701050Y1061750D02*
X772150D01*
Y1021050D02*
Y1061750D01*
X701050Y1021050D02*
Y1061750D01*
Y1010950D02*
X772150D01*
X701050Y970250D02*
X772150D01*
X701050D02*
Y1010950D01*
X772150Y970250D02*
Y1010950D01*
D11*
X1031200Y365800D02*
G03*
X1044100Y378700I0J12900D01*
G01*
X848400Y497800D02*
G03*
X835500Y484900I0J-12900D01*
G01*
Y378700D02*
G03*
X848400Y365800I12900J0D01*
G01*
X870400Y977900D02*
Y997900D01*
X958400D01*
Y977900D02*
Y997900D01*
X825550Y977900D02*
X870400D01*
X958400D01*
X1003250D01*
Y546100D02*
Y977900D01*
X825550Y546100D02*
X1003250D01*
X825550D02*
Y977900D01*
X1003300Y365800D02*
X1031300D01*
X1044100Y378800D02*
Y406400D01*
Y469900D02*
Y497800D01*
X1016000D02*
X1044100D01*
X848300D02*
X876300D01*
X835500Y457200D02*
Y484800D01*
X848300Y365800D02*
X876300D01*
X835500Y378800D02*
Y406400D01*
X924400Y1133400D02*
Y1248400D01*
X804400Y1133400D02*
X924400D01*
X804400D02*
Y1248400D01*
X894400D02*
X924400D01*
X834400D02*
X894400D01*
X804400D02*
X834400D01*
X894400D02*
Y1283400D01*
X834400D02*
X894400D01*
X834400Y1248400D02*
Y1283400D01*
D12*
X1109480Y990995D02*
G03*
X1109480Y990995I-1250J0D01*
G01*
X1017250Y1115050D02*
G03*
X1017250Y1115050I-1250J0D01*
G01*
X779280Y1041795D02*
G03*
X779280Y1041795I-1250J0D01*
G01*
X696420Y990205D02*
G03*
X696420Y990205I-1250J0D01*
G01*
D13*
X865900Y1233400D02*
G03*
X865900Y1233400I-1500J0D01*
G01*
D14*
X1135900Y950200D02*
X1200900D01*
Y1005600D01*
X1135900D02*
X1200900D01*
X1135900Y950200D02*
Y1005600D01*
X704100Y594600D02*
Y802400D01*
X769100D01*
Y594600D02*
Y802400D01*
X704100Y594600D02*
X769100D01*
X721200Y475900D02*
X781200D01*
X712200Y421400D02*
Y451400D01*
X721200Y396900D02*
X781200D01*
X790200Y421400D02*
Y451400D01*
X704100Y518400D02*
Y573800D01*
X769100D01*
Y518400D02*
Y573800D01*
X704100Y518400D02*
X769100D01*
Y823200D02*
Y929400D01*
X704100Y823200D02*
X769100D01*
X704100D02*
Y929400D01*
X769100D01*
X1135900Y1051800D02*
Y1259600D01*
X1200900D01*
Y1051800D02*
Y1259600D01*
X1135900Y1051800D02*
X1200900D01*
D15*
X1094740Y358140D02*
Y373375D01*
X1099818Y368297D01*
X1104897Y373375D01*
Y358140D01*
X1117593D02*
X1112514D01*
X1109975Y360679D01*
Y365757D01*
X1112514Y368297D01*
X1117593D01*
X1120132Y365757D01*
Y363218D01*
X1109975D01*
X1125210Y358140D02*
X1130288D01*
X1127749D01*
Y373375D01*
X1125210D01*
X1140445Y358140D02*
X1145524D01*
X1148063Y360679D01*
Y365757D01*
X1145524Y368297D01*
X1140445D01*
X1137906Y365757D01*
Y360679D01*
X1140445Y358140D01*
X1153141D02*
Y368297D01*
X1160759D01*
X1163298Y365757D01*
Y358140D01*
X1173455D02*
X1168376Y363218D01*
Y368297D01*
X1173455Y373375D01*
X1181072Y358140D02*
X1186150D01*
X1183611D01*
Y373375D01*
X1181072Y370836D01*
X1193768Y358140D02*
X1198846D01*
X1196307D01*
Y373375D01*
X1193768Y370836D01*
X1206464Y358140D02*
X1211542Y363218D01*
Y368297D01*
X1206464Y373375D01*
X867425Y1018539D02*
X872504D01*
X875043Y1016000D01*
Y1008382D01*
X867425D01*
X864886Y1010922D01*
X867425Y1013461D01*
X875043D01*
X880121Y1018539D02*
Y1008382D01*
Y1013461D01*
X882660Y1016000D01*
X885199Y1018539D01*
X887739D01*
X905513Y1023617D02*
Y1008382D01*
X897895D01*
X895356Y1010922D01*
Y1016000D01*
X897895Y1018539D01*
X905513D01*
X910591D02*
Y1010922D01*
X913130Y1008382D01*
X920748D01*
Y1018539D01*
X925826Y1008382D02*
X930905D01*
X928365D01*
Y1018539D01*
X925826D01*
X938522Y1008382D02*
Y1018539D01*
X946140D01*
X948679Y1016000D01*
Y1008382D01*
X956296D02*
X961375D01*
X963914Y1010922D01*
Y1016000D01*
X961375Y1018539D01*
X956296D01*
X953757Y1016000D01*
Y1010922D01*
X956296Y1008382D01*
X981721Y1113787D02*
Y1098552D01*
X989339D01*
X991878Y1101091D01*
Y1111248D01*
X989339Y1113787D01*
X981721D01*
X1007113Y1111248D02*
X1004574Y1113787D01*
X999495D01*
X996956Y1111248D01*
Y1101091D01*
X999495Y1098552D01*
X1004574D01*
X1007113Y1101091D01*
X1012191Y1096013D02*
X1022348D01*
X1027426Y1098552D02*
X1032505D01*
X1029966D01*
Y1108709D01*
X1027426D01*
X1040122Y1098552D02*
Y1108709D01*
X1047740D01*
X1050279Y1106170D01*
Y1098552D01*
X1219200Y943621D02*
Y953778D01*
X1214122Y948699D02*
X1224278D01*
X1226817Y958856D02*
Y963934D01*
Y961395D01*
X1211582D01*
X1214122Y958856D01*
X1226817Y981709D02*
Y971552D01*
X1216661Y981709D01*
X1214122D01*
X1211582Y979170D01*
Y974091D01*
X1214122Y971552D01*
X1211582Y986787D02*
X1221739D01*
X1226817Y991865D01*
X1221739Y996944D01*
X1211582D01*
X1219200Y1002022D02*
Y1012179D01*
X680722Y727696D02*
X690878D01*
X695957Y722618D01*
X690878Y717540D01*
X680722D01*
X688339D01*
Y727696D01*
X680722Y712461D02*
X690878D01*
Y704844D01*
X688339Y702305D01*
X680722D01*
X690878Y694687D02*
Y689609D01*
X688339Y687070D01*
X680722D01*
Y694687D01*
X683261Y697226D01*
X685800Y694687D01*
Y687070D01*
X680722Y681991D02*
Y676913D01*
Y679452D01*
X695957D01*
Y681991D01*
X680722Y666756D02*
Y661678D01*
X683261Y659139D01*
X688339D01*
X690878Y661678D01*
Y666756D01*
X688339Y669295D01*
X683261D01*
X680722Y666756D01*
X675643Y648982D02*
Y646443D01*
X678183Y643904D01*
X690878D01*
Y651521D01*
X688339Y654060D01*
X683261D01*
X680722Y651521D01*
Y643904D01*
X1254757Y514356D02*
X1239522D01*
Y521974D01*
X1242061Y524513D01*
X1247139D01*
X1249678Y521974D01*
Y514356D01*
Y529591D02*
Y534670D01*
Y532130D01*
X1234443D01*
Y529591D01*
Y552444D02*
X1249678D01*
Y544826D01*
X1247139Y542287D01*
X1242061D01*
X1239522Y544826D01*
Y552444D01*
X880129Y363218D02*
X875051D01*
X872512Y360678D01*
Y350522D01*
X875051Y347982D01*
X880129D01*
X882669Y350522D01*
Y360678D01*
X880129Y363218D01*
X887747Y347982D02*
X895364D01*
X897904Y350522D01*
X895364Y353061D01*
X890286D01*
X887747Y355600D01*
X890286Y358139D01*
X897904D01*
X913139D02*
X905521D01*
X902982Y355600D01*
Y350522D01*
X905521Y347982D01*
X913139D01*
X918217D02*
X923295D01*
X920756D01*
Y358139D01*
X918217D01*
X930913Y347982D02*
X935991D01*
X933452D01*
Y363218D01*
X930913D01*
X943609Y347982D02*
X948687D01*
X946148D01*
Y363218D01*
X943609D01*
X958844Y358139D02*
X963922D01*
X966461Y355600D01*
Y347982D01*
X958844D01*
X956305Y350522D01*
X958844Y353061D01*
X966461D01*
X974079Y360678D02*
Y358139D01*
X971540D01*
X976618D01*
X974079D01*
Y350522D01*
X976618Y347982D01*
X986775D02*
X991853D01*
X994392Y350522D01*
Y355600D01*
X991853Y358139D01*
X986775D01*
X984236Y355600D01*
Y350522D01*
X986775Y347982D01*
X999471Y358139D02*
Y347982D01*
Y353061D01*
X1002010Y355600D01*
X1004549Y358139D01*
X1007088D01*
X707404Y388617D02*
Y373382D01*
Y380999D01*
X709943Y383538D01*
X715021D01*
X717560Y380999D01*
Y373382D01*
X725178D02*
X730256D01*
X732795Y375921D01*
Y380999D01*
X730256Y383538D01*
X725178D01*
X722639Y380999D01*
Y375921D01*
X725178Y373382D01*
X737874D02*
Y383538D01*
X740413D01*
X742952Y380999D01*
Y373382D01*
Y380999D01*
X745491Y383538D01*
X748030Y380999D01*
Y373382D01*
X753109D02*
X758187D01*
X755648D01*
Y383538D01*
X753109D01*
X765805Y373382D02*
Y383538D01*
X773422D01*
X775961Y380999D01*
Y373382D01*
X786118Y368303D02*
X788657D01*
X791197Y370843D01*
Y383538D01*
X783579D01*
X781040Y380999D01*
Y375921D01*
X783579Y373382D01*
X791197D01*
X678183Y575296D02*
Y580375D01*
X680722Y582914D01*
X685800D01*
X688339Y580375D01*
Y575296D01*
X685800Y572757D01*
X683261D01*
Y582914D01*
X678183Y567679D02*
X688339D01*
Y560061D01*
X685800Y557522D01*
X678183D01*
X688339Y542287D02*
Y549905D01*
X685800Y552444D01*
X680722D01*
X678183Y549905D01*
Y542287D01*
Y534670D02*
Y529591D01*
X680722Y527052D01*
X685800D01*
X688339Y529591D01*
Y534670D01*
X685800Y537209D01*
X680722D01*
X678183Y534670D01*
X693418Y511817D02*
X678183D01*
Y519435D01*
X680722Y521974D01*
X685800D01*
X688339Y519435D01*
Y511817D01*
X678183Y499121D02*
Y504199D01*
X680722Y506739D01*
X685800D01*
X688339Y504199D01*
Y499121D01*
X685800Y496582D01*
X683261D01*
Y506739D01*
X688339Y491503D02*
X678183D01*
X683261D01*
X685800Y488964D01*
X688339Y486425D01*
Y483886D01*
X800124Y1127757D02*
Y1112522D01*
X807741D01*
X810281Y1115061D01*
Y1125218D01*
X807741Y1127757D01*
X800124D01*
X815359Y1112522D02*
X820437D01*
X817898D01*
Y1122678D01*
X815359D01*
X833133Y1107443D02*
X835672D01*
X838212Y1109983D01*
Y1122678D01*
X830594D01*
X828055Y1120139D01*
Y1115061D01*
X830594Y1112522D01*
X838212D01*
X843290D02*
X848368D01*
X845829D01*
Y1122678D01*
X843290D01*
X858525Y1125218D02*
Y1122678D01*
X855986D01*
X861064D01*
X858525D01*
Y1115061D01*
X861064Y1112522D01*
X871221Y1122678D02*
X876299D01*
X878838Y1120139D01*
Y1112522D01*
X871221D01*
X868682Y1115061D01*
X871221Y1117600D01*
X878838D01*
X883917Y1112522D02*
X888995D01*
X886456D01*
Y1127757D01*
X883917D01*
X896613Y1109983D02*
X906769D01*
X914387Y1112522D02*
X919465D01*
X922004Y1115061D01*
Y1120139D01*
X919465Y1122678D01*
X914387D01*
X911848Y1120139D01*
Y1115061D01*
X914387Y1112522D01*
X927083Y1122678D02*
Y1115061D01*
X929622Y1112522D01*
X937240D01*
Y1122678D01*
X944857Y1125218D02*
Y1122678D01*
X942318D01*
X947396D01*
X944857D01*
Y1115061D01*
X947396Y1112522D01*
X1236982Y748043D02*
X1252217D01*
Y740425D01*
X1249678Y737886D01*
X1244600D01*
X1242061Y740425D01*
Y748043D01*
X1252217Y760739D02*
Y755660D01*
X1249678Y753121D01*
X1244600D01*
X1242061Y755660D01*
Y760739D01*
X1244600Y763278D01*
X1247139D01*
Y753121D01*
X1242061Y778513D02*
Y770895D01*
X1244600Y768356D01*
X1249678D01*
X1252217Y770895D01*
Y778513D01*
Y786130D02*
Y791209D01*
X1249678Y793748D01*
X1244600D01*
X1242061Y791209D01*
Y786130D01*
X1244600Y783591D01*
X1249678D01*
X1252217Y786130D01*
X1236982Y808983D02*
X1252217D01*
Y801366D01*
X1249678Y798826D01*
X1244600D01*
X1242061Y801366D01*
Y808983D01*
X1252217Y821679D02*
Y816601D01*
X1249678Y814061D01*
X1244600D01*
X1242061Y816601D01*
Y821679D01*
X1244600Y824218D01*
X1247139D01*
Y814061D01*
X1242061Y829296D02*
X1252217D01*
X1247139D01*
X1244600Y831836D01*
X1242061Y834375D01*
Y836914D01*
X695957Y920736D02*
X680722D01*
Y913118D01*
X683261Y910579D01*
X693418D01*
X695957Y913118D01*
Y920736D01*
X680722Y905500D02*
Y900422D01*
Y902961D01*
X690878D01*
Y905500D01*
X675643Y887726D02*
Y885187D01*
X678183Y882648D01*
X690878D01*
Y890266D01*
X688339Y892805D01*
X683261D01*
X680722Y890266D01*
Y882648D01*
Y877570D02*
Y872491D01*
Y875030D01*
X690878D01*
Y877570D01*
X693418Y862335D02*
X690878D01*
Y864874D01*
Y859795D01*
Y862335D01*
X683261D01*
X680722Y859795D01*
X690878Y849639D02*
Y844560D01*
X688339Y842021D01*
X680722D01*
Y849639D01*
X683261Y852178D01*
X685800Y849639D01*
Y842021D01*
X680722Y836943D02*
Y831864D01*
Y834404D01*
X695957D01*
Y836943D01*
X680722Y1243314D02*
Y1238236D01*
Y1240775D01*
X695957D01*
X693418Y1243314D01*
X680722Y1220461D02*
Y1230618D01*
X690878Y1220461D01*
X693418D01*
X695957Y1223001D01*
Y1228079D01*
X693418Y1230618D01*
X695957Y1215383D02*
X685800D01*
X680722Y1210305D01*
X685800Y1205226D01*
X695957D01*
X678183Y1200148D02*
Y1189991D01*
X690878Y1184913D02*
X680722D01*
X685800D01*
X688339Y1182374D01*
X690878Y1179835D01*
Y1177295D01*
X680722Y1162060D02*
Y1167139D01*
X683261Y1169678D01*
X688339D01*
X690878Y1167139D01*
Y1162060D01*
X688339Y1159521D01*
X685800D01*
Y1169678D01*
X675643Y1149364D02*
Y1146825D01*
X678183Y1144286D01*
X690878D01*
Y1151904D01*
X688339Y1154443D01*
X683261D01*
X680722Y1151904D01*
Y1144286D01*
X1219200Y1112534D02*
Y1122691D01*
X1214122Y1117612D02*
X1224278D01*
X1211582Y1153161D02*
Y1143004D01*
X1219200D01*
X1216661Y1148082D01*
Y1150622D01*
X1219200Y1153161D01*
X1224278D01*
X1226817Y1150622D01*
Y1145543D01*
X1224278Y1143004D01*
X1211582Y1158239D02*
X1221739D01*
X1226817Y1163317D01*
X1221739Y1168396D01*
X1211582D01*
X1219200Y1188709D02*
Y1198866D01*
M02*
